<svg width="24" height="24" viewBox="0 0 24 24" fill="none" xmlns="http://www.w3.org/2000/svg">
<rect width="24" height="20" transform="translate(0 2)" fill="#E6E6E6"/>
<path d="M6.83975 16H5.19203L7.70268 8.72727H9.68422L12.1913 16H10.5436L8.72186 10.3892H8.66504L6.83975 16ZM6.73677 13.1413H10.6288V14.3416H6.73677V13.1413ZM13.0667 16V8.72727H15.9786C16.5136 8.72727 16.9599 8.80658 17.3174 8.9652C17.6749 9.12382 17.9436 9.34399 18.1235 9.62571C18.3034 9.90507 18.3934 10.227 18.3934 10.5916C18.3934 10.8757 18.3366 11.1255 18.2229 11.3409C18.1093 11.554 17.953 11.7292 17.7542 11.8665C17.5577 12.0014 17.3328 12.0973 17.0795 12.1541V12.2251C17.3564 12.237 17.6157 12.3151 17.8572 12.4595C18.101 12.6039 18.2987 12.8063 18.4502 13.0668C18.6017 13.3248 18.6775 13.6326 18.6775 13.9901C18.6775 14.3759 18.5816 14.7204 18.3898 15.0234C18.2004 15.3241 17.9199 15.562 17.5482 15.7372C17.1765 15.9124 16.7184 16 16.1739 16H13.0667ZM14.6043 14.7429H15.8579C16.2864 14.7429 16.5989 14.6612 16.7954 14.4979C16.9919 14.3321 17.0901 14.112 17.0901 13.8374C17.0901 13.6361 17.0416 13.4586 16.9445 13.3047C16.8474 13.1508 16.709 13.0301 16.529 12.9425C16.3515 12.8549 16.1396 12.8111 15.8934 12.8111H14.6043V14.7429ZM14.6043 11.7706H15.7442C15.9549 11.7706 16.142 11.7339 16.3053 11.6605C16.471 11.5848 16.6012 11.4782 16.6959 11.3409C16.793 11.2036 16.8415 11.0391 16.8415 10.8473C16.8415 10.5845 16.748 10.3726 16.561 10.2116C16.3763 10.0507 16.1135 9.97017 15.7726 9.97017H14.6043V11.7706Z" fill="black"/>
</svg>
