<svg width="24" height="24" viewBox="0 0 24 24" fill="none" xmlns="http://www.w3.org/2000/svg">
<rect width="24" height="20" transform="translate(0 2)" fill="#24A148"/>
<path d="M6.55655 16H4.90882L7.41948 8.72727H9.40101L11.9081 16H10.2604L8.43865 10.3892H8.38184L6.55655 16ZM6.45357 13.1413H10.3456V14.3416H6.45357V13.1413ZM18.8586 11.2734H17.3032C17.2748 11.0722 17.2168 10.8935 17.1292 10.7372C17.0416 10.5786 16.9291 10.4437 16.7918 10.3324C16.6545 10.2211 16.4959 10.1359 16.316 10.0767C16.1384 10.0175 15.9455 9.98793 15.7371 9.98793C15.3607 9.98793 15.0328 10.0814 14.7535 10.2685C14.4741 10.4531 14.2575 10.723 14.1036 11.0781C13.9497 11.4309 13.8728 11.8594 13.8728 12.3636C13.8728 12.8821 13.9497 13.3177 14.1036 13.6705C14.2599 14.0232 14.4777 14.2895 14.757 14.4695C15.0364 14.6494 15.3595 14.7393 15.7265 14.7393C15.9324 14.7393 16.123 14.7121 16.2982 14.6577C16.4758 14.6032 16.6332 14.5239 16.7705 14.4197C16.9078 14.3132 17.0215 14.1842 17.1114 14.0327C17.2037 13.8812 17.2677 13.7083 17.3032 13.5142L18.8586 13.5213C18.8183 13.8551 18.7177 14.1771 18.5567 14.4872C18.3981 14.795 18.1839 15.0708 17.914 15.3146C17.6465 15.5561 17.3269 15.7479 16.9552 15.8899C16.5858 16.0296 16.168 16.0994 15.7016 16.0994C15.0529 16.0994 14.4729 15.9527 13.9616 15.6591C13.4526 15.3655 13.0501 14.9406 12.7542 14.3842C12.4606 13.8279 12.3138 13.1544 12.3138 12.3636C12.3138 11.5705 12.463 10.8958 12.7613 10.3395C13.0596 9.78314 13.4644 9.35937 13.9758 9.06818C14.4871 8.77462 15.0624 8.62784 15.7016 8.62784C16.123 8.62784 16.5136 8.68703 16.8735 8.8054C17.2357 8.92377 17.5565 9.09659 17.8358 9.32386C18.1152 9.54877 18.3425 9.82457 18.5177 10.1513C18.6952 10.478 18.8089 10.852 18.8586 11.2734Z" fill="white"/>
</svg>
