<svg width="50" height="50" viewBox="0 0 50 50" fill="none" xmlns="http://www.w3.org/2000/svg">
<path d="M6.65918 14.5V43.2002H35.3584V46.2002H7.20898C5.2578 46.2002 3.65844 44.6013 3.6582 42.6504V14.5H6.65918ZM12.0361 9.30566V38.0059H40.7363V41.0059H12.5859C10.6346 41.0059 9.0352 39.4071 9.03516 37.4561V9.30566H12.0361ZM42.791 3.7998C44.7422 3.7998 46.3416 5.39865 46.3418 7.34961V31.9502L46.3369 32.1318C46.2413 33.9995 44.6814 35.5 42.791 35.5H18.1914C16.2403 35.5 14.6417 33.9014 14.6416 31.9502V7.34961L14.6465 7.16797C14.7422 5.30024 16.3013 3.7998 18.1914 3.7998H42.791ZM17.6416 6.7998V32.5H43.3408V6.7998H17.6416Z" fill="#5F249F"/>
<path d="M31.474 26.292C32.4844 26.6128 33.2161 27.5582 33.2162 28.6748C33.2162 30.0555 32.0969 31.1748 30.7162 31.1748C29.3357 31.1746 28.2162 30.0554 28.2162 28.6748C28.2163 27.5527 28.9558 26.6023 29.974 26.2861V18.8252H31.474V26.292ZM30.7162 27.6748C30.1642 27.6751 29.7163 28.1228 29.7162 28.6748C29.7162 29.2269 30.1641 29.6746 30.7162 29.6748C31.2685 29.6748 31.7162 29.2271 31.7162 28.6748C31.7161 28.1226 31.2684 27.6748 30.7162 27.6748ZM27.7406 25.5889H24.642C24.3236 26.6034 23.3758 27.3398 22.2562 27.3398C20.8758 27.3396 19.7564 26.2203 19.7562 24.8398C19.7562 23.4593 20.8757 22.34 22.2562 22.3398C23.3753 22.3398 24.3222 23.075 24.641 24.0889H26.2406V18.8252H27.7406V25.5889ZM35.0179 24.0889H36.767C37.0858 23.0751 38.0327 22.3398 39.1517 22.3398C40.5322 22.3401 41.6517 23.4593 41.6517 24.8398C41.6515 26.2202 40.5321 27.3396 39.1517 27.3398C38.0321 27.3398 37.0844 26.6034 36.766 25.5889H33.5179V18.8252H35.0179V24.0889ZM39.1517 23.8398C38.5994 23.8398 38.1517 24.2876 38.1517 24.8398C38.1519 25.392 38.5996 25.8398 39.1517 25.8398C39.7037 25.8396 40.1515 25.3918 40.1517 24.8398C40.1517 24.2877 39.7038 23.8401 39.1517 23.8398ZM22.2562 23.8398C21.7041 23.84 21.2562 24.2877 21.2562 24.8398C21.2564 25.3918 21.7042 25.8396 22.2562 25.8398C22.8084 25.8398 23.256 25.392 23.2562 24.8398C23.2562 24.2876 22.8085 23.8398 22.2562 23.8398Z" fill="#5F249F"/>
<path d="M24.8261 16.3087H22.9085L25.069 9.76326H27.498L29.6585 16.3087H27.7409L26.3091 11.5658H26.258L24.8261 16.3087ZM24.4682 13.7263H28.0733V15.0559H24.4682V13.7263ZM30.2889 16.3087V9.76326H33.1142C33.6 9.76326 34.0251 9.85914 34.3894 10.0509C34.7538 10.2427 35.0372 10.5122 35.2396 10.8595C35.442 11.2068 35.5432 11.6127 35.5432 12.0772C35.5432 12.5459 35.4388 12.9518 35.23 13.2949C35.0233 13.6379 34.7325 13.9021 34.3575 14.0875C33.9846 14.2728 33.5489 14.3655 33.0503 14.3655H31.3628V12.9849H32.6923C32.9012 12.9849 33.0791 12.9486 33.2261 12.8762C33.3752 12.8016 33.4892 12.6961 33.5681 12.5598C33.649 12.4234 33.6895 12.2626 33.6895 12.0772C33.6895 11.8897 33.649 11.7299 33.5681 11.5978C33.4892 11.4635 33.3752 11.3613 33.2261 11.291C33.0791 11.2185 32.9012 11.1823 32.6923 11.1823H32.0659V16.3087H30.2889ZM37.9722 9.76326V16.3087H36.1952V9.76326H37.9722Z" fill="#5F249F"/>
</svg>
