<svg width="50" height="50" viewBox="0 0 50 50" fill="none" xmlns="http://www.w3.org/2000/svg">
<path d="M6.20898 14.9502V43.6504H34.9082V45.75H7.20898C5.50625 45.75 4.10864 44.3527 4.1084 42.6504V14.9502H6.20898ZM11.5859 9.75586V38.4561H40.2861V40.5557H12.5859C10.883 40.5557 9.48539 39.1584 9.48535 37.4561V9.75586H11.5859ZM42.791 4.25C44.4938 4.25 45.8914 5.64726 45.8916 7.34961V31.9502L45.8877 32.1084C45.8043 33.7383 44.4409 35.0498 42.791 35.0498H18.1914C16.4888 35.0498 15.0919 33.6529 15.0918 31.9502V7.34961L15.0957 7.19141C15.1792 5.56126 16.542 4.25 18.1914 4.25H42.791ZM17.1914 6.34961V32.9502H43.791V6.34961H17.1914Z" fill="#0067B3"/>
<path d="M31.474 25.9922C32.4879 26.3109 33.2229 27.2589 33.223 28.3779C33.223 29.7586 32.1037 30.8779 30.723 30.8779C29.3424 30.8778 28.223 29.7586 28.223 28.3779C28.2231 27.2583 28.9594 26.3105 29.974 25.9922V18H31.474V25.9922ZM30.723 27.3779C30.1709 27.378 29.7232 27.8258 29.723 28.3779C29.723 28.9302 30.1708 29.3778 30.723 29.3779C31.2753 29.3779 31.723 28.9302 31.723 28.3779C31.7229 27.8258 31.2752 27.3779 30.723 27.3779ZM35.225 18.0088V23.2725H37.6576C37.9765 22.2588 38.9234 21.5235 40.0424 21.5234C41.4231 21.5234 42.5423 22.6427 42.5424 24.0234C42.5423 25.4041 41.423 26.5234 40.0424 26.5234C38.9227 26.5234 37.9749 25.7872 37.6566 24.7725H33.725V18.0088H35.225ZM27.724 24.7637H23.7924C23.474 25.7784 22.5263 26.5146 21.4066 26.5146C20.0261 26.5144 18.9066 25.3952 18.9066 24.0146C18.9066 22.6341 20.0261 21.5149 21.4066 21.5146C22.5256 21.5146 23.4724 22.25 23.7914 23.2637H26.224V18H27.724V24.7637ZM40.0424 23.0234C39.4901 23.0235 39.0424 23.4712 39.0424 24.0234C39.0424 24.5756 39.4902 25.0234 40.0424 25.0234C40.5946 25.0234 41.0423 24.5757 41.0424 24.0234C41.0423 23.4712 40.5946 23.0234 40.0424 23.0234ZM21.4066 23.0146C20.8545 23.0149 20.4066 23.4625 20.4066 24.0146C20.4066 24.5668 20.8545 25.0144 21.4066 25.0146C21.9589 25.0146 22.4066 24.5669 22.4066 24.0146C22.4066 23.4624 21.9589 23.0146 21.4066 23.0146Z" fill="#0067B3"/>
<path d="M24.8261 15.5985H22.9085L25.069 9.05306H27.498L29.6585 15.5985H27.7409L26.3091 10.8556H26.258L24.8261 15.5985ZM24.4682 13.0161H28.0733V14.3457H24.4682V13.0161ZM30.2889 15.5985V9.05306H33.1142C33.6 9.05306 34.0251 9.14894 34.3894 9.3407C34.7538 9.53246 35.0372 9.80199 35.2396 10.1493C35.442 10.4966 35.5432 10.9025 35.5432 11.367C35.5432 11.8357 35.4388 12.2416 35.23 12.5847C35.0233 12.9277 34.7325 13.1919 34.3575 13.3773C33.9846 13.5626 33.5489 13.6553 33.0503 13.6553H31.3628V12.2746H32.6923C32.9012 12.2746 33.0791 12.2384 33.2261 12.166C33.3752 12.0914 33.4892 11.9859 33.5681 11.8496C33.649 11.7132 33.6895 11.5523 33.6895 11.367C33.6895 11.1795 33.649 11.0197 33.5681 10.8876C33.4892 10.7533 33.3752 10.6511 33.2261 10.5808C33.0791 10.5083 32.9012 10.4721 32.6923 10.4721H32.0659V15.5985H30.2889ZM37.9722 9.05306V15.5985H36.1952V9.05306H37.9722Z" fill="#0067B3"/>
</svg>
