<svg width="50" height="50" viewBox="0 0 50 50" fill="none" xmlns="http://www.w3.org/2000/svg">
<path d="M6.20898 14.9502V43.6504H34.9082V45.75H7.20898C5.50625 45.75 4.10864 44.3527 4.1084 42.6504V14.9502H6.20898ZM11.5859 9.75586V38.4561H40.2861V40.5557H12.5859C10.883 40.5557 9.48539 39.1584 9.48535 37.4561V9.75586H11.5859ZM42.791 4.25C44.4938 4.25 45.8914 5.64726 45.8916 7.34961V31.9502L45.8877 32.1084C45.8043 33.7383 44.4409 35.0498 42.791 35.0498H18.1914C16.4888 35.0498 15.0919 33.6529 15.0918 31.9502V7.34961L15.0957 7.19141C15.1792 5.56126 16.542 4.25 18.1914 4.25H42.791ZM17.1914 6.34961V32.9502H43.791V6.34961H17.1914Z" fill="#0067B3"/>
<path d="M31.474 26.292C32.4844 26.6128 33.2161 27.5582 33.2162 28.6748C33.2162 30.0555 32.0969 31.1748 30.7162 31.1748C29.3357 31.1746 28.2162 30.0554 28.2162 28.6748C28.2163 27.5527 28.9558 26.6023 29.974 26.2861V18.8252H31.474V26.292ZM30.7162 27.6748C30.1642 27.6751 29.7163 28.1228 29.7162 28.6748C29.7162 29.2269 30.1641 29.6746 30.7162 29.6748C31.2685 29.6748 31.7162 29.2271 31.7162 28.6748C31.7161 28.1226 31.2684 27.6748 30.7162 27.6748ZM27.7406 25.5889H24.642C24.3236 26.6034 23.3758 27.3398 22.2562 27.3398C20.8758 27.3396 19.7564 26.2203 19.7562 24.8398C19.7562 23.4593 20.8757 22.34 22.2562 22.3398C23.3753 22.3398 24.3222 23.075 24.641 24.0889H26.2406V18.8252H27.7406V25.5889ZM35.0179 24.0889H36.767C37.0858 23.0751 38.0327 22.3398 39.1517 22.3398C40.5322 22.3401 41.6517 23.4593 41.6517 24.8398C41.6515 26.2202 40.5321 27.3396 39.1517 27.3398C38.0321 27.3398 37.0844 26.6034 36.766 25.5889H33.5179V18.8252H35.0179V24.0889ZM39.1517 23.8398C38.5994 23.8398 38.1517 24.2876 38.1517 24.8398C38.1519 25.392 38.5996 25.8398 39.1517 25.8398C39.7037 25.8396 40.1515 25.3918 40.1517 24.8398C40.1517 24.2877 39.7038 23.8401 39.1517 23.8398ZM22.2562 23.8398C21.7041 23.84 21.2562 24.2877 21.2562 24.8398C21.2564 25.3918 21.7042 25.8396 22.2562 25.8398C22.8084 25.8398 23.256 25.392 23.2562 24.8398C23.2562 24.2876 22.8085 23.8398 22.2562 23.8398Z" fill="#0067B3"/>
<path d="M24.8261 15.5985H22.9085L25.069 9.05306H27.498L29.6585 15.5985H27.7409L26.3091 10.8556H26.258L24.8261 15.5985ZM24.4682 13.0161H28.0733V14.3457H24.4682V13.0161ZM30.2889 15.5985V9.05306H33.1142C33.6 9.05306 34.0251 9.14894 34.3894 9.3407C34.7538 9.53246 35.0372 9.80199 35.2396 10.1493C35.442 10.4966 35.5432 10.9025 35.5432 11.367C35.5432 11.8357 35.4388 12.2416 35.23 12.5847C35.0233 12.9277 34.7325 13.1919 34.3575 13.3773C33.9846 13.5626 33.5489 13.6553 33.0503 13.6553H31.3628V12.2746H32.6923C32.9012 12.2746 33.0791 12.2384 33.2261 12.166C33.3752 12.0914 33.4892 11.9859 33.5681 11.8496C33.649 11.7132 33.6895 11.5523 33.6895 11.367C33.6895 11.1795 33.649 11.0197 33.5681 10.8876C33.4892 10.7533 33.3752 10.6511 33.2261 10.5808C33.0791 10.5083 32.9012 10.4721 32.6923 10.4721H32.0659V15.5985H30.2889ZM37.9722 9.05306V15.5985H36.1952V9.05306H37.9722Z" fill="#0067B3"/>
</svg>
