<svg width="24" height="24" viewBox="0 0 24 24" fill="none" xmlns="http://www.w3.org/2000/svg">
<path d="M21 4C19.89 3.65 18.67 3.5 17.5 3.5C15.55 3.5 13.45 3.9 12 5C10.55 3.9 8.45 3.5 6.5 3.5C4.55 3.5 2.45 3.9 1 5V19.65C1 19.9 1.25 20.15 1.5 20.15C1.6 20.15 1.65 20.1 1.75 20.1C3.1 19.45 5.05 19 6.5 19C8.45 19 10.55 19.4 12 20.5C13.35 19.65 15.8 19 17.5 19C19.15 19 20.85 19.3 22.25 20.05C22.35 20.1 22.4 20.1 22.5 20.1C22.75 20.1 23 19.85 23 19.6V5C22.4 4.55 21.75 4.25 21 4ZM21 17.5C19.9 17.15 18.7 17 17.5 17C15.8 17 13.35 17.65 12 18.5V7C13.35 6.15 15.8 5.5 17.5 5.5C18.7 5.5 19.9 5.65 21 6V17.5Z" fill="black"/>
<path d="M14.3264 15V7.72727H17.2384C17.7734 7.72727 18.2197 7.80658 18.5771 7.9652C18.9346 8.12382 19.2033 8.34399 19.3833 8.62571C19.5632 8.90507 19.6531 9.22704 19.6531 9.59162C19.6531 9.87571 19.5963 10.1255 19.4827 10.3409C19.3691 10.554 19.2128 10.7292 19.0139 10.8665C18.8174 11.0014 18.5925 11.0973 18.3392 11.1541V11.2251C18.6162 11.237 18.8754 11.3151 19.1169 11.4595C19.3608 11.6039 19.5584 11.8063 19.71 12.0668C19.8615 12.3248 19.9372 12.6326 19.9372 12.9901C19.9372 13.3759 19.8414 13.7204 19.6496 14.0234C19.4602 14.3241 19.1797 14.562 18.808 14.7372C18.4363 14.9124 17.9782 15 17.4337 15H14.3264ZM15.8641 13.7429H17.1176C17.5461 13.7429 17.8586 13.6612 18.0551 13.4979C18.2516 13.3321 18.3499 13.112 18.3499 12.8374C18.3499 12.6361 18.3013 12.4586 18.2043 12.3047C18.1072 12.1508 17.9687 12.0301 17.7888 11.9425C17.6112 11.8549 17.3994 11.8111 17.1531 11.8111H15.8641V13.7429ZM15.8641 10.7706H17.004C17.2147 10.7706 17.4017 10.7339 17.5651 10.6605C17.7308 10.5848 17.861 10.4782 17.9557 10.3409C18.0528 10.2036 18.1013 10.0391 18.1013 9.8473C18.1013 9.58452 18.0078 9.37263 17.8208 9.21165C17.6361 9.05066 17.3733 8.97017 17.0324 8.97017H15.8641V10.7706Z" fill="black"/>
</svg>
