<svg width="24" height="24" viewBox="0 0 24 24" fill="none" xmlns="http://www.w3.org/2000/svg">
<rect x="1" y="3" width="22" height="18" fill="#BBD6EB"/>
<rect x="1" y="3" width="22" height="18" stroke="#1B75BB" stroke-width="2"/>
<path d="M14.7892 11.2734H13.2338C13.2054 11.0722 13.1474 10.8935 13.0598 10.7372C12.9722 10.5786 12.8598 10.4437 12.7225 10.3324C12.5852 10.2211 12.4266 10.1359 12.2466 10.0767C12.0691 10.0175 11.8761 9.98793 11.6678 9.98793C11.2914 9.98793 10.9635 10.0814 10.6841 10.2685C10.4048 10.4531 10.1882 10.723 10.0343 11.0781C9.88039 11.4309 9.80344 11.8594 9.80344 12.3636C9.80344 12.8821 9.88039 13.3177 10.0343 13.6705C10.1905 14.0232 10.4083 14.2895 10.6877 14.4695C10.967 14.6494 11.2902 14.7393 11.6571 14.7393C11.8631 14.7393 12.0537 14.7121 12.2289 14.6577C12.4064 14.6032 12.5639 14.5239 12.7012 14.4197C12.8385 14.3132 12.9521 14.1842 13.0421 14.0327C13.1344 13.8812 13.1983 13.7083 13.2338 13.5142L14.7892 13.5213C14.749 13.8551 14.6484 14.1771 14.4874 14.4872C14.3288 14.795 14.1145 15.0708 13.8446 15.3146C13.5771 15.5561 13.2575 15.7479 12.8858 15.8899C12.5165 16.0296 12.0987 16.0994 11.6323 16.0994C10.9836 16.0994 10.4036 15.9527 9.89222 15.6591C9.38323 15.3655 8.98076 14.9406 8.68484 14.3842C8.39128 13.8279 8.2445 13.1544 8.2445 12.3636C8.2445 11.5705 8.39364 10.8958 8.69194 10.3395C8.99023 9.78314 9.39506 9.35937 9.90643 9.06818C10.4178 8.77462 10.9931 8.62784 11.6323 8.62784C12.0537 8.62784 12.4443 8.68703 12.8042 8.8054C13.1664 8.92377 13.4872 9.09659 13.7665 9.32386C14.0459 9.54877 14.2731 9.82457 14.4483 10.1513C14.6259 10.478 14.7395 10.852 14.7892 11.2734Z" fill="black"/>
</svg>
