<svg width="24" height="24" viewBox="0 0 24 24" fill="none" xmlns="http://www.w3.org/2000/svg">
<path d="M1.54285 8.40685V16.8137L1.61485 16.9646C1.67313 17.0846 1.72456 17.1326 1.84799 17.1874C1.98513 17.2491 2.04685 17.2526 2.41713 17.2354C3.02056 17.2046 3.34285 17.0983 3.4457 16.9029C3.49028 16.8137 3.49713 15.9874 3.50742 9.64456C3.51428 2.89028 3.5177 2.47542 3.57599 2.30742C3.64113 2.10856 3.8057 1.87885 3.95313 1.76914L4.04913 1.69714L9.6617 1.67999C14.0948 1.66628 15.2914 1.65256 15.3497 1.61828C15.4594 1.55656 15.5863 1.37485 15.6308 1.21714C15.6514 1.14171 15.6686 0.836564 15.6686 0.538278V-7.55806e-06H8.6057H1.54285V8.40685Z" fill="black"/>
<path d="M8.51999 3.29143C5.82856 3.30857 5.59541 3.312 5.51313 3.36686C5.36913 3.46286 5.2457 3.648 5.1737 3.87428C5.11199 4.07657 5.10856 4.33371 5.10513 11.9417C5.1017 17.6194 5.11199 19.8411 5.13941 19.944C5.20113 20.1737 5.37941 20.4034 5.57141 20.5029C5.81141 20.6229 6.22284 20.6263 6.43541 20.5029C6.59656 20.4137 6.73027 20.2423 6.81599 20.016C6.87084 19.8823 6.87427 19.2926 6.8777 12.9429C6.88113 7.49486 6.89141 5.97257 6.9257 5.81143C6.9977 5.46857 7.2137 5.32457 7.76913 5.24571C7.91999 5.22514 9.95313 5.21486 13.2068 5.21486C19.0011 5.21828 18.6274 5.23543 18.8743 4.98514C19.0148 4.84457 19.0423 4.71771 19.0183 4.34057C18.984 3.80914 18.7508 3.42171 18.408 3.33257C18.2297 3.28457 13.1657 3.264 8.51999 3.29143Z" fill="black"/>
<path d="M9.08916 6.86057C8.84573 6.90171 8.62288 7.00457 8.55773 7.104C8.50973 7.176 8.50288 8.02286 8.49945 15.3429C8.49945 19.8309 8.49602 23.616 8.49945 23.7497L8.50288 24H15.48H22.4572V15.6069C22.4572 7.68686 22.4537 7.21029 22.3954 7.09714C22.3646 7.032 22.2857 6.94286 22.2206 6.90171L22.104 6.82286L15.6892 6.82629C12.1063 6.82971 9.19202 6.84343 9.08916 6.86057Z" fill="black"/>
<path d="M18.2892 14.2734H16.7338C16.7054 14.0722 16.6474 13.8935 16.5598 13.7372C16.4722 13.5786 16.3598 13.4437 16.2225 13.3324C16.0852 13.2211 15.9266 13.1359 15.7466 13.0767C15.5691 13.0175 15.3761 12.9879 15.1678 12.9879C14.7914 12.9879 14.4635 13.0814 14.1841 13.2685C13.9048 13.4531 13.6882 13.723 13.5343 14.0781C13.3804 14.4309 13.3034 14.8594 13.3034 15.3636C13.3034 15.8821 13.3804 16.3177 13.5343 16.6705C13.6905 17.0232 13.9083 17.2895 14.1877 17.4695C14.467 17.6494 14.7902 17.7393 15.1571 17.7393C15.3631 17.7393 15.5537 17.7121 15.7289 17.6577C15.9064 17.6032 16.0639 17.5239 16.2012 17.4197C16.3385 17.3132 16.4521 17.1842 16.5421 17.0327C16.6344 16.8812 16.6983 16.7083 16.7338 16.5142L18.2892 16.5213C18.249 16.8551 18.1484 17.1771 17.9874 17.4872C17.8288 17.795 17.6145 18.0708 17.3446 18.3146C17.0771 18.5561 16.7575 18.7479 16.3858 18.8899C16.0165 19.0296 15.5987 19.0994 15.1323 19.0994C14.4836 19.0994 13.9036 18.9527 13.3922 18.6591C12.8832 18.3655 12.4808 17.9406 12.1848 17.3842C11.8913 16.8279 11.7445 16.1544 11.7445 15.3636C11.7445 14.5705 11.8936 13.8958 12.1919 13.3395C12.4902 12.7831 12.8951 12.3594 13.4064 12.0682C13.9178 11.7746 14.4931 11.6278 15.1323 11.6278C15.5537 11.6278 15.9443 11.687 16.3042 11.8054C16.6664 11.9238 16.9872 12.0966 17.2665 12.3239C17.5459 12.5488 17.7731 12.8246 17.9483 13.1513C18.1259 13.478 18.2395 13.852 18.2892 14.2734Z" fill="white"/>
</svg>
