<svg width="24" height="24" viewBox="0 0 24 24" fill="none" xmlns="http://www.w3.org/2000/svg">
<rect width="24" height="20" transform="translate(0 2)" fill="white"/>
<path d="M11.6174 11.2734H10.062C10.0336 11.0722 9.97556 10.8935 9.88796 10.7372C9.80037 10.5786 9.68791 10.4437 9.5506 10.3324C9.41329 10.2211 9.25468 10.1359 9.07475 10.0767C8.89719 10.0175 8.70425 9.98793 8.49592 9.98793C8.1195 9.98793 7.79161 10.0814 7.51225 10.2685C7.2329 10.4531 7.01628 10.723 6.86239 11.0781C6.70851 11.4309 6.63157 11.8594 6.63157 12.3636C6.63157 12.8821 6.70851 13.3177 6.86239 13.6705C7.01864 14.0232 7.23645 14.2895 7.5158 14.4695C7.79516 14.6494 8.11831 14.7393 8.48526 14.7393C8.69123 14.7393 8.88181 14.7121 9.057 14.6577C9.23455 14.6032 9.39199 14.5239 9.5293 14.4197C9.66661 14.3132 9.78024 14.1842 9.87021 14.0327C9.96254 13.8812 10.0265 13.7083 10.062 13.5142L11.6174 13.5213C11.5771 13.8551 11.4765 14.1771 11.3155 14.4872C11.1569 14.795 10.9426 15.0708 10.6728 15.3146C10.4052 15.5561 10.0856 15.7479 9.71396 15.8899C9.34464 16.0296 8.92679 16.0994 8.4604 16.0994C7.81173 16.0994 7.23171 15.9527 6.72035 15.6591C6.21135 15.3655 5.80889 14.9406 5.51296 14.3842C5.2194 13.8279 5.07262 13.1544 5.07262 12.3636C5.07262 11.5705 5.22177 10.8958 5.52006 10.3395C5.81836 9.78314 6.22319 9.35937 6.73455 9.06818C7.24592 8.77462 7.8212 8.62784 8.4604 8.62784C8.88181 8.62784 9.27243 8.68703 9.63228 8.8054C9.9945 8.92377 10.3153 9.09659 10.5946 9.32386C10.874 9.54877 11.1013 9.82457 11.2765 10.1513C11.454 10.478 11.5676 10.852 11.6174 11.2734ZM13.8368 16H12.1891L14.6998 8.72727H16.6813L19.1884 16H17.5407L15.7189 10.3892H15.6621L13.8368 16ZM13.7338 13.1413H17.6259V14.3416H13.7338V13.1413Z" fill="black"/>
</svg>
