<svg width="24" height="24" viewBox="0 0 24 24" fill="none" xmlns="http://www.w3.org/2000/svg">
<rect width="24" height="20" transform="translate(0 2)" fill="white"/>
<path d="M11.9523 11.2734H10.3969C10.3685 11.0722 10.3105 10.8935 10.2229 10.7372C10.1353 10.5786 10.0229 10.4437 9.88556 10.3324C9.74825 10.2211 9.58964 10.1359 9.40971 10.0767C9.23216 10.0175 9.03921 9.98793 8.83088 9.98793C8.45446 9.98793 8.12657 10.0814 7.84721 10.2685C7.56786 10.4531 7.35124 10.723 7.19735 11.0781C7.04347 11.4309 6.96653 11.8594 6.96653 12.3636C6.96653 12.8821 7.04347 13.3177 7.19735 13.6705C7.3536 14.0232 7.57141 14.2895 7.85076 14.4695C8.13012 14.6494 8.45327 14.7393 8.82022 14.7393C9.02619 14.7393 9.21677 14.7121 9.39196 14.6577C9.56951 14.6032 9.72695 14.5239 9.86426 14.4197C10.0016 14.3132 10.1152 14.1842 10.2052 14.0327C10.2975 13.8812 10.3614 13.7083 10.3969 13.5142L11.9523 13.5213C11.9121 13.8551 11.8115 14.1771 11.6505 14.4872C11.4919 14.795 11.2776 15.0708 11.0077 15.3146C10.7402 15.5561 10.4206 15.7479 10.0489 15.8899C9.6796 16.0296 9.26175 16.0994 8.79537 16.0994C8.14669 16.0994 7.56667 15.9527 7.05531 15.6591C6.54631 15.3655 6.14385 14.9406 5.84792 14.3842C5.55436 13.8279 5.40758 13.1544 5.40758 12.3636C5.40758 11.5705 5.55673 10.8958 5.85502 10.3395C6.15332 9.78314 6.55815 9.35937 7.06951 9.06818C7.58088 8.77462 8.15616 8.62784 8.79537 8.62784C9.21677 8.62784 9.60739 8.68703 9.96724 8.8054C10.3295 8.92377 10.6502 9.09659 10.9296 9.32386C11.209 9.54877 11.4362 9.82457 11.6114 10.1513C11.789 10.478 11.9026 10.852 11.9523 11.2734ZM13.055 16V8.72727H14.5926V14.7322H17.7105V16H13.055Z" fill="black"/>
</svg>
