<svg width="24" height="24" viewBox="0 0 24 24" fill="none" xmlns="http://www.w3.org/2000/svg">
<rect x="1" y="3" width="22" height="18" fill="#BBD6EB"/>
<rect x="1" y="3" width="22" height="18" stroke="#1B75BB" stroke-width="2"/>
<path d="M12.008 11.2734H10.4526C10.4242 11.0722 10.3662 10.8935 10.2786 10.7372C10.191 10.5786 10.0785 10.4437 9.94123 10.3324C9.80392 10.2211 9.6453 10.1359 9.46538 10.0767C9.28782 10.0175 9.09487 9.98793 8.88654 9.98793C8.51012 9.98793 8.18223 10.0814 7.90288 10.2685C7.62352 10.4531 7.4069 10.723 7.25302 11.0781C7.09914 11.4309 7.02219 11.8594 7.02219 12.3636C7.02219 12.8821 7.09914 13.3177 7.25302 13.6705C7.40927 14.0232 7.62707 14.2895 7.90643 14.4695C8.18578 14.6494 8.50894 14.7393 8.87589 14.7393C9.08185 14.7393 9.27243 14.7121 9.44762 14.6577C9.62518 14.6032 9.78261 14.5239 9.91992 14.4197C10.0572 14.3132 10.1709 14.1842 10.2608 14.0327C10.3532 13.8812 10.4171 13.7083 10.4526 13.5142L12.008 13.5213C11.9677 13.8551 11.8671 14.1771 11.7061 14.4872C11.5475 14.795 11.3333 15.0708 11.0634 15.3146C10.7959 15.5561 10.4763 15.7479 10.1046 15.8899C9.73526 16.0296 9.31741 16.0994 8.85103 16.0994C8.20236 16.0994 7.62234 15.9527 7.11097 15.6591C6.60198 15.3655 6.19951 14.9406 5.90359 14.3842C5.61003 13.8279 5.46325 13.1544 5.46325 12.3636C5.46325 11.5705 5.61239 10.8958 5.91069 10.3395C6.20898 9.78314 6.61381 9.35937 7.12518 9.06818C7.63654 8.77462 8.21183 8.62784 8.85103 8.62784C9.27243 8.62784 9.66306 8.68703 10.0229 8.8054C10.3851 8.92377 10.7059 9.09659 10.9853 9.32386C11.2646 9.54877 11.4919 9.82457 11.6671 10.1513C11.8446 10.478 11.9583 10.852 12.008 11.2734ZM13.1106 16V8.72727H15.9799C16.5292 8.72727 16.9979 8.82552 17.3862 9.02202C17.7768 9.21615 18.0739 9.49195 18.2775 9.84943C18.4835 10.2045 18.5865 10.6224 18.5865 11.103C18.5865 11.5859 18.4823 12.0014 18.274 12.3494C18.0656 12.6951 17.7638 12.9602 17.3684 13.1449C16.9754 13.3295 16.4996 13.4219 15.9409 13.4219H14.0197V12.1861H15.6923C15.9859 12.1861 16.2297 12.1458 16.4238 12.0653C16.618 11.9848 16.7624 11.8641 16.8571 11.7031C16.9541 11.5421 17.0027 11.3421 17.0027 11.103C17.0027 10.8615 16.9541 10.6579 16.8571 10.4922C16.7624 10.3265 16.6168 10.201 16.4203 10.1158C16.2261 10.0282 15.9811 9.98438 15.6852 9.98438H14.6483V16H13.1106ZM17.0382 12.6903L18.8457 16H17.1483L15.3798 12.6903H17.0382Z" fill="black"/>
</svg>
