<svg width="24" height="24" viewBox="0 0 24 24" fill="none" xmlns="http://www.w3.org/2000/svg">
<rect x="1" y="3" width="22" height="18" fill="#BBD6EB"/>
<rect x="1" y="3" width="22" height="18" stroke="#1B75BB" stroke-width="2"/>
<path d="M11.0725 16H8.49441V8.72727H11.0938C11.8254 8.72727 12.4551 8.87287 12.983 9.16406C13.511 9.45289 13.917 9.86837 14.2011 10.4105C14.4875 10.9527 14.6308 11.6013 14.6308 12.3565C14.6308 13.1141 14.4875 13.7652 14.2011 14.3097C13.917 14.8542 13.5086 15.272 12.9759 15.5632C12.4456 15.8544 11.8112 16 11.0725 16ZM10.032 14.6825H11.0086C11.4632 14.6825 11.8455 14.602 12.1556 14.4411C12.4681 14.2777 12.7025 14.0256 12.8588 13.6847C13.0174 13.3414 13.0967 12.8987 13.0967 12.3565C13.0967 11.8191 13.0174 11.38 12.8588 11.0391C12.7025 10.6982 12.4693 10.4472 12.1592 10.2862C11.849 10.1252 11.4667 10.0447 11.0122 10.0447H10.032V14.6825Z" fill="black"/>
</svg>
