<svg width="50" height="50" viewBox="0 0 50 50" fill="none" xmlns="http://www.w3.org/2000/svg">
<path d="M21.6504 34C21.6504 34.6774 21.6937 35.3448 21.7754 36H6V43H24.4219C24.9056 43.7097 25.4445 44.3785 26.0332 45H4V34H21.6504ZM14.8145 41.5H9.81445V37.5H14.8145V41.5ZM29.9004 20C28.8833 20.5643 27.9342 21.2359 27.0684 22H6V29H22.4482C22.2348 29.6493 22.0622 30.317 21.9326 31H4V20H29.9004ZM14.8145 27.5H9.81445V23.5H14.8145V27.5ZM42 17H4V6H42V17ZM6 15H40V8H6V15ZM14.8145 13.5H9.81445V9.5H14.8145V13.5Z" fill="black"/>
<path d="M47.6508 33V25H40.6508V28H34.6508V25H27.6508V33H34.6508V30H36.6508V40H40.6508V43H47.6508V35H40.6508V38H38.6508V30H40.6508V33H47.6508ZM32.6508 31H29.6508V27H32.6508V31ZM42.6508 37H45.6508V41H42.6508V37ZM42.6508 27H45.6508V31H42.6508V27Z" fill="black"/>
</svg>
