<svg width="24" height="24" viewBox="0 0 24 24" fill="none" xmlns="http://www.w3.org/2000/svg">
<rect width="24" height="20" transform="translate(0 2)" fill="white"/>
<path d="M8.01101 16H5.43288V8.72727H8.03232C8.76385 8.72727 9.39358 8.87287 9.92152 9.16406C10.4495 9.45289 10.8555 9.86837 11.1396 10.4105C11.426 10.9527 11.5692 11.6013 11.5692 12.3565C11.5692 13.1141 11.426 13.7652 11.1396 14.3097C10.8555 14.8542 10.4471 15.272 9.91442 15.5632C9.38411 15.8544 8.74964 16 8.01101 16ZM6.97053 14.6825H7.94709C8.40163 14.6825 8.78397 14.602 9.09411 14.4411C9.40661 14.2777 9.64098 14.0256 9.79723 13.6847C9.95585 13.3414 10.0352 12.8987 10.0352 12.3565C10.0352 11.8191 9.95585 11.38 9.79723 11.0391C9.64098 10.6982 9.40779 10.4472 9.09766 10.2862C8.78752 10.1252 8.40518 10.0447 7.95064 10.0447H6.97053V14.6825ZM12.7083 16V8.72727H17.6088V9.99503H14.2459V11.728H17.3567V12.9957H14.2459V14.7322H17.623V16H12.7083Z" fill="black"/>
</svg>
