<svg width="24" height="24" viewBox="0 0 24 24" fill="none" xmlns="http://www.w3.org/2000/svg">
<rect width="24" height="20" transform="translate(0 2)" fill="#1B75BB"/>
<path d="M7.83523 16H5.2571V8.72727H7.85653C8.58807 8.72727 9.2178 8.87287 9.74574 9.16406C10.2737 9.45289 10.6797 9.86837 10.9638 10.4105C11.2502 10.9527 11.3935 11.6013 11.3935 12.3565C11.3935 13.1141 11.2502 13.7652 10.9638 14.3097C10.6797 14.8542 10.2713 15.272 9.73864 15.5632C9.20833 15.8544 8.57386 16 7.83523 16ZM6.79474 14.6825H7.77131C8.22585 14.6825 8.60819 14.602 8.91832 14.4411C9.23082 14.2777 9.4652 14.0256 9.62145 13.6847C9.78007 13.3414 9.85938 12.8987 9.85938 12.3565C9.85938 11.8191 9.78007 11.38 9.62145 11.0391C9.4652 10.6982 9.23201 10.4472 8.92188 10.2862C8.61174 10.1252 8.2294 10.0447 7.77486 10.0447H6.79474V14.6825ZM12.5325 16V8.72727H15.4018C15.9534 8.72727 16.4234 8.83262 16.8116 9.04332C17.1999 9.25166 17.4958 9.54167 17.6994 9.91335C17.9054 10.2827 18.0083 10.7088 18.0083 11.1918C18.0083 11.6747 17.9042 12.1009 17.6958 12.4702C17.4875 12.8395 17.1857 13.1271 16.7903 13.3331C16.3973 13.5391 15.9215 13.642 15.3627 13.642H13.5339V12.4098H15.1142C15.4101 12.4098 15.6539 12.3589 15.8457 12.2571C16.0398 12.1529 16.1842 12.0097 16.2789 11.8274C16.376 11.6428 16.4245 11.4309 16.4245 11.1918C16.4245 10.9503 16.376 10.7396 16.2789 10.5597C16.1842 10.3774 16.0398 10.2365 15.8457 10.1371C15.6516 10.0353 15.4054 9.98438 15.1071 9.98438H14.0701V16H12.5325Z" fill="white"/>
</svg>
