<svg width="24" height="24" viewBox="0 0 24 24" fill="none" xmlns="http://www.w3.org/2000/svg">
<rect width="24" height="20" transform="translate(0 2)" fill="#1B75BB"/>
<path d="M6.29421 16V8.72727H11.1948V9.99503H7.83185V11.728H10.9426V12.9957H7.83185V14.7322H11.209V16H6.29421ZM16.3626 10.8189C16.3342 10.5324 16.2122 10.3099 15.9968 10.1513C15.7814 9.99266 15.489 9.91335 15.1197 9.91335C14.8687 9.91335 14.6568 9.94886 14.484 10.0199C14.3112 10.0885 14.1786 10.1844 14.0863 10.3075C13.9963 10.4306 13.9513 10.5703 13.9513 10.7266C13.9466 10.8568 13.9738 10.9704 14.033 11.0675C14.0946 11.1645 14.1786 11.2486 14.2852 11.3196C14.3917 11.3883 14.5148 11.4486 14.6545 11.5007C14.7942 11.5504 14.9433 11.593 15.1019 11.6286L15.7553 11.7848C16.0726 11.8558 16.3638 11.9505 16.6289 12.0689C16.8941 12.1873 17.1237 12.3329 17.3178 12.5057C17.512 12.6785 17.6623 12.8821 17.7688 13.1165C17.8777 13.3509 17.9334 13.6196 17.9357 13.9226C17.9334 14.3677 17.8197 14.7536 17.5948 15.0803C17.3723 15.4046 17.0503 15.6567 16.6289 15.8366C16.2099 16.0142 15.7044 16.103 15.1126 16.103C14.5254 16.103 14.0141 16.013 13.5785 15.8331C13.1452 15.6532 12.8067 15.3868 12.5629 15.0341C12.3214 14.679 12.1947 14.2398 12.1829 13.7166H13.6708C13.6874 13.9605 13.7572 14.1641 13.8803 14.3274C14.0058 14.4884 14.1727 14.6103 14.381 14.6932C14.5917 14.7737 14.8297 14.8139 15.0948 14.8139C15.3552 14.8139 15.5813 14.776 15.7731 14.7003C15.9672 14.6245 16.1175 14.5192 16.2241 14.3842C16.3306 14.2493 16.3839 14.0942 16.3839 13.919C16.3839 13.7557 16.3353 13.6184 16.2383 13.5071C16.1436 13.3958 16.0039 13.3011 15.8192 13.223C15.637 13.1449 15.4132 13.0739 15.1481 13.0099L14.3562 12.8111C13.743 12.6619 13.2589 12.4287 12.9038 12.1115C12.5487 11.7943 12.3723 11.367 12.3746 10.8295C12.3723 10.3892 12.4895 10.0045 12.7262 9.67543C12.9653 9.34635 13.2932 9.08949 13.7099 8.90483C14.1265 8.72017 14.6 8.62784 15.1303 8.62784C15.6701 8.62784 16.1412 8.72017 16.5437 8.90483C16.9485 9.08949 17.2634 9.34635 17.4883 9.67543C17.7132 10.0045 17.8292 10.3857 17.8363 10.8189H16.3626Z" fill="white"/>
</svg>
