<svg width="24" height="24" viewBox="0 0 24 24" fill="none" xmlns="http://www.w3.org/2000/svg">
<rect width="24" height="20" transform="translate(0 2)" fill="#E6E6E6"/>
<path d="M5.16433 16V8.72727H6.70197V11.728H9.82342V8.72727H11.3575V16H9.82342V12.9957H6.70197V16H5.16433ZM12.6253 16V8.72727H15.4946C16.0462 8.72727 16.5161 8.83262 16.9044 9.04332C17.2926 9.25166 17.5886 9.54167 17.7922 9.91335C17.9981 10.2827 18.1011 10.7088 18.1011 11.1918C18.1011 11.6747 17.997 12.1009 17.7886 12.4702C17.5803 12.8395 17.2784 13.1271 16.8831 13.3331C16.4901 13.5391 16.0142 13.642 15.4555 13.642H13.6267V12.4098H15.2069C15.5029 12.4098 15.7467 12.3589 15.9385 12.2571C16.1326 12.1529 16.277 12.0097 16.3717 11.8274C16.4688 11.6428 16.5173 11.4309 16.5173 11.1918C16.5173 10.9503 16.4688 10.7396 16.3717 10.5597C16.277 10.3774 16.1326 10.2365 15.9385 10.1371C15.7443 10.0353 15.4981 9.98438 15.1998 9.98438H14.1629V16H12.6253Z" fill="black"/>
</svg>
