<svg width="24" height="24" viewBox="0 0 24 24" fill="none" xmlns="http://www.w3.org/2000/svg">
<rect x="1" y="3" width="22" height="18" fill="#BBD6EB"/>
<rect x="1" y="3" width="22" height="18" stroke="#1B75BB" stroke-width="2"/>
<path d="M8.96271 8.72727V16H7.42507V8.72727H8.96271ZM10.2278 16V8.72727H13.1397C13.6748 8.72727 14.121 8.80658 14.4785 8.9652C14.836 9.12382 15.1047 9.34399 15.2846 9.62571C15.4645 9.90507 15.5545 10.227 15.5545 10.5916C15.5545 10.8757 15.4977 11.1255 15.3841 11.3409C15.2704 11.554 15.1142 11.7292 14.9153 11.8665C14.7188 12.0014 14.4939 12.0973 14.2406 12.1541V12.2251C14.5176 12.237 14.7768 12.3151 15.0183 12.4595C15.2621 12.6039 15.4598 12.8063 15.6113 13.0668C15.7628 13.3248 15.8386 13.6326 15.8386 13.9901C15.8386 14.3759 15.7427 14.7204 15.551 15.0234C15.3616 15.3241 15.081 15.562 14.7093 15.7372C14.3377 15.9124 13.8796 16 13.335 16H10.2278ZM11.7654 14.7429H13.019C13.4475 14.7429 13.76 14.6612 13.9565 14.4979C14.153 14.3321 14.2512 14.112 14.2512 13.8374C14.2512 13.6361 14.2027 13.4586 14.1056 13.3047C14.0086 13.1508 13.8701 13.0301 13.6902 12.9425C13.5126 12.8549 13.3007 12.8111 13.0545 12.8111H11.7654V14.7429ZM11.7654 11.7706H12.9054C13.1161 11.7706 13.3031 11.7339 13.4664 11.6605C13.6322 11.5848 13.7624 11.4782 13.8571 11.3409C13.9541 11.2036 14.0027 11.0391 14.0027 10.8473C14.0027 10.5845 13.9092 10.3726 13.7221 10.2116C13.5375 10.0507 13.2747 9.97017 12.9338 9.97017H11.7654V11.7706Z" fill="black"/>
</svg>
