<svg width="24" height="24" viewBox="0 0 24 24" fill="none" xmlns="http://www.w3.org/2000/svg">
<rect width="24" height="20" transform="translate(0 2)" fill="white"/>
<path d="M9.00861 8.72727V16H7.47097V8.72727H9.00861ZM16.6906 11.2734H15.1352C15.1068 11.0722 15.0488 10.8935 14.9612 10.7372C14.8736 10.5786 14.7612 10.4437 14.6238 10.3324C14.4865 10.2211 14.3279 10.1359 14.148 10.0767C13.9704 10.0175 13.7775 9.98793 13.5692 9.98793C13.1927 9.98793 12.8648 10.0814 12.5855 10.2685C12.3061 10.4531 12.0895 10.723 11.9356 11.0781C11.7818 11.4309 11.7048 11.8594 11.7048 12.3636C11.7048 12.8821 11.7818 13.3177 11.9356 13.6705C12.0919 14.0232 12.3097 14.2895 12.589 14.4695C12.8684 14.6494 13.1916 14.7393 13.5585 14.7393C13.7645 14.7393 13.955 14.7121 14.1302 14.6577C14.3078 14.6032 14.4652 14.5239 14.6025 14.4197C14.7398 14.3132 14.8535 14.1842 14.9434 14.0327C15.0358 13.8812 15.0997 13.7083 15.1352 13.5142L16.6906 13.5213C16.6504 13.8551 16.5497 14.1771 16.3888 14.4872C16.2301 14.795 16.0159 15.0708 15.746 15.3146C15.4785 15.5561 15.1589 15.7479 14.7872 15.8899C14.4179 16.0296 14 16.0994 13.5336 16.0994C12.885 16.0994 12.305 15.9527 11.7936 15.6591C11.2846 15.3655 10.8821 14.9406 10.5862 14.3842C10.2926 13.8279 10.1459 13.1544 10.1459 12.3636C10.1459 11.5705 10.295 10.8958 10.5933 10.3395C10.8916 9.78314 11.2964 9.35937 11.8078 9.06818C12.3192 8.77462 12.8944 8.62784 13.5336 8.62784C13.955 8.62784 14.3457 8.68703 14.7055 8.8054C15.0677 8.92377 15.3885 9.09659 15.6679 9.32386C15.9472 9.54877 16.1745 9.82457 16.3497 10.1513C16.5273 10.478 16.6409 10.852 16.6906 11.2734Z" fill="black"/>
</svg>
