<svg width="24" height="24" viewBox="0 0 24 24" fill="none" xmlns="http://www.w3.org/2000/svg">
<rect width="24" height="20" transform="translate(0 2)" fill="#0086E6"/>
<path d="M4.7049 8.72727V16H3.16726V8.72727H4.7049ZM10.7924 11.0781C10.7427 10.9053 10.6729 10.7526 10.5829 10.62C10.493 10.4851 10.3829 10.3714 10.2527 10.2791C10.1248 10.1844 9.97804 10.1122 9.81232 10.0625C9.64897 10.0128 9.46786 9.98793 9.269 9.98793C8.89731 9.98793 8.57061 10.0803 8.28888 10.2649C8.00953 10.4496 7.79173 10.7183 7.63548 11.071C7.47923 11.4214 7.4011 11.8499 7.4011 12.3565C7.4011 12.8632 7.47804 13.294 7.63192 13.6491C7.78581 14.0043 8.00361 14.2753 8.28533 14.4624C8.56706 14.647 8.89968 14.7393 9.2832 14.7393C9.63121 14.7393 9.92833 14.6778 10.1745 14.5547C10.4231 14.4292 10.6125 14.2528 10.7427 14.0256C10.8753 13.7983 10.9416 13.5296 10.9416 13.2195L11.2541 13.2656H9.37908V12.108H12.4224V13.0241C12.4224 13.6634 12.2875 14.2126 12.0176 14.6719C11.7477 15.1288 11.376 15.4815 10.9025 15.7301C10.429 15.9763 9.8869 16.0994 9.2761 16.0994C8.59428 16.0994 7.99532 15.9491 7.47923 15.6484C6.96313 15.3454 6.56067 14.9157 6.27184 14.3594C5.98538 13.8007 5.84215 13.1378 5.84215 12.3707C5.84215 11.7812 5.92738 11.2557 6.09783 10.794C6.27066 10.33 6.51213 9.93703 6.82227 9.61506C7.1324 9.29309 7.49343 9.04806 7.90536 8.87997C8.31729 8.71188 8.76355 8.62784 9.24414 8.62784C9.65607 8.62784 10.0396 8.68821 10.3947 8.80895C10.7498 8.92732 11.0647 9.09541 11.3393 9.31321C11.6163 9.53101 11.8424 9.79025 12.0176 10.0909C12.1928 10.3892 12.3052 10.7183 12.3549 11.0781H10.7924ZM19.9943 11.2734H18.4389C18.4105 11.0722 18.3525 10.8935 18.2649 10.7372C18.1773 10.5786 18.0649 10.4437 17.9276 10.3324C17.7902 10.2211 17.6316 10.1359 17.4517 10.0767C17.2741 10.0175 17.0812 9.98793 16.8729 9.98793C16.4964 9.98793 16.1686 10.0814 15.8892 10.2685C15.6098 10.4531 15.3932 10.723 15.2393 11.0781C15.0855 11.4309 15.0085 11.8594 15.0085 12.3636C15.0085 12.8821 15.0855 13.3177 15.2393 13.6705C15.3956 14.0232 15.6134 14.2895 15.8928 14.4695C16.1721 14.6494 16.4953 14.7393 16.8622 14.7393C17.0682 14.7393 17.2588 14.7121 17.4339 14.6577C17.6115 14.6032 17.7689 14.5239 17.9062 14.4197C18.0436 14.3132 18.1572 14.1842 18.2472 14.0327C18.3395 13.8812 18.4034 13.7083 18.4389 13.5142L19.9943 13.5213C19.9541 13.8551 19.8535 14.1771 19.6925 14.4872C19.5339 14.795 19.3196 15.0708 19.0497 15.3146C18.7822 15.5561 18.4626 15.7479 18.0909 15.8899C17.7216 16.0296 17.3037 16.0994 16.8374 16.0994C16.1887 16.0994 15.6087 15.9527 15.0973 15.6591C14.5883 15.3655 14.1858 14.9406 13.8899 14.3842C13.5964 13.8279 13.4496 13.1544 13.4496 12.3636C13.4496 11.5705 13.5987 10.8958 13.897 10.3395C14.1953 9.78314 14.6001 9.35937 15.1115 9.06818C15.6229 8.77462 16.1982 8.62784 16.8374 8.62784C17.2588 8.62784 17.6494 8.68703 18.0092 8.8054C18.3714 8.92377 18.6922 9.09659 18.9716 9.32386C19.2509 9.54877 19.4782 9.82457 19.6534 10.1513C19.831 10.478 19.9446 10.852 19.9943 11.2734Z" fill="white"/>
</svg>
