<svg width="24" height="24" viewBox="0 0 24 24" fill="none" xmlns="http://www.w3.org/2000/svg">
<rect width="24" height="20" transform="translate(0 2)" fill="#1B75BB"/>
<path d="M8.98713 8.72727V16H7.44949V8.72727H8.98713ZM10.2522 16V8.72727H13.1215C13.6708 8.72727 14.1395 8.82552 14.5278 9.02202C14.9184 9.21615 15.2155 9.49195 15.4191 9.84943C15.6251 10.2045 15.7281 10.6224 15.7281 11.103C15.7281 11.5859 15.6239 12.0014 15.4156 12.3494C15.2072 12.6951 14.9054 12.9602 14.51 13.1449C14.117 13.3295 13.6412 13.4219 13.0825 13.4219H11.1613V12.1861H12.8339C13.1275 12.1861 13.3713 12.1458 13.5654 12.0653C13.7596 11.9848 13.904 11.8641 13.9987 11.7031C14.0957 11.5421 14.1443 11.3421 14.1443 11.103C14.1443 10.8615 14.0957 10.6579 13.9987 10.4922C13.904 10.3265 13.7584 10.201 13.5619 10.1158C13.3677 10.0282 13.1227 9.98438 12.8268 9.98438H11.7899V16H10.2522ZM14.1798 12.6903L15.9873 16H14.2899L12.5214 12.6903H14.1798Z" fill="white"/>
</svg>
