<svg width="24" height="24" viewBox="0 0 24 24" fill="none" xmlns="http://www.w3.org/2000/svg">
<path d="M18.8859 3.94622C17.5106 5.3485 17.4566 5.42041 17.5825 5.60918C17.6544 5.71705 17.7083 5.82492 17.7083 5.85188C17.7083 5.86986 17.3937 6.05863 17.0162 6.26538C16.6297 6.47212 15.6049 7.04742 14.733 7.5508L13.1419 8.4497L13.1869 9.71715C13.2408 11.0475 13.1419 11.8026 12.7824 12.8363L12.6206 13.3217H12.1441C11.7217 13.3307 11.6318 13.3667 11.407 13.6184C11.0205 14.0588 11.0475 14.4633 11.4969 14.8948C11.8835 15.2634 12.1352 15.3443 12.5486 15.2364C12.9981 15.1195 13.1689 14.8589 13.1599 14.3105L13.1419 13.8251L13.5644 13.6543C14.5532 13.2229 15.4431 13.0611 16.8274 13.0611L18.1488 13.0521L18.8589 11.7037C19.2544 10.9576 19.7938 9.93289 20.0545 9.41153C20.3241 8.89017 20.5489 8.4497 20.5578 8.43173C20.5668 8.41375 20.6927 8.46768 20.8275 8.55757L21.0702 8.71937L22.5354 7.20922C23.9107 5.77997 24.1085 5.54626 23.9287 5.54626C23.8838 5.54626 23.3894 5.13276 22.8321 4.62039C21.1152 3.06529 20.459 2.49 20.3871 2.49C20.3511 2.49 19.6769 3.1462 18.8859 3.94622ZM17.16 8.207C18.7241 8.98904 18.6342 11.2183 17.0162 11.9015C16.6027 12.0723 15.7577 12.0453 15.3173 11.8475C14.8229 11.6228 14.3285 11.0206 14.2026 10.4812C13.7891 8.7823 15.5689 7.41597 17.16 8.207Z" fill="black"/>
<path d="M10.2025 2.93944L1.66296 2.98439L1.24048 3.22709C0.791032 3.49676 0.404505 3.94621 0.152813 4.49454C0.00898901 4.80915 0 5.40243 0 11.9554C0 18.9219 0.00898901 19.0837 0.188769 19.4792C0.413494 19.9736 0.907889 20.5039 1.39329 20.7646L1.75285 20.9624L10.643 20.9894C20.6028 21.0163 20.1264 21.0433 20.8725 20.3781C21.0972 20.1803 21.3758 19.8298 21.4927 19.5961L21.7084 19.1646L21.7354 13.96L21.7624 8.76431L21.4747 8.99803C21.277 9.16882 21.1241 9.23174 20.9803 9.19579C20.8005 9.15084 20.6837 9.32163 19.6859 11.2363C19.0836 12.3779 18.5443 13.3667 18.4994 13.4296C18.4454 13.5015 18.014 13.5285 17.142 13.5285C16.1263 13.5195 15.7038 13.5555 15.0835 13.7083C13.8431 14.0139 13.6992 14.0948 13.6813 14.4813C13.6543 15.2004 13.1329 15.7128 12.3689 15.7757C11.9733 15.8027 11.8565 15.7667 11.4879 15.524C10.8677 15.1105 10.661 14.778 10.652 14.2116C10.652 13.4925 11.1104 12.9712 11.8655 12.8453C12.252 12.7824 12.279 12.7644 12.4228 12.315C12.7104 11.47 12.8003 10.3194 12.6745 9.25871C12.5756 8.3688 12.5756 8.30588 12.7284 8.15306C12.8273 8.06317 13.8071 7.47889 14.9217 6.85865C16.8634 5.77098 16.9443 5.71704 16.9533 5.44737C16.9712 5.21366 17.16 4.97095 18.0589 4.07206C18.6612 3.46979 19.1466 2.95742 19.1466 2.92146C19.1466 2.88551 19.0567 2.86753 18.9488 2.87652C18.832 2.88551 14.9038 2.91248 10.2025 2.93944ZM13.1959 6.04964C13.4206 6.20245 13.4565 6.50808 13.2678 6.76876C13.1419 6.93056 12.9801 6.93955 8.65641 6.94854C4.05404 6.95753 3.28099 6.92157 3.13716 6.70583C3.01132 6.49909 3.04727 6.27436 3.23604 6.08559C3.40683 5.9148 3.53268 5.90581 8.20696 5.90581C12.3958 5.90581 13.0161 5.92379 13.1959 6.04964ZM11.6138 8.93511C11.7936 9.09691 11.8205 9.33961 11.6857 9.60029C11.5958 9.76209 11.452 9.77108 7.46087 9.77108H3.33492L3.20008 9.57332C3.01131 9.30365 3.0203 9.17781 3.23604 8.96207C3.40683 8.79128 3.53268 8.78229 7.4339 8.78229C11.0385 8.78229 11.461 8.80027 11.6138 8.93511ZM11.6318 11.8026C11.8115 11.9824 11.8115 12.324 11.6318 12.5037C11.5059 12.6296 11.0295 12.6476 7.38896 12.6296L3.28997 12.6026L3.15514 12.3689C3.03828 12.1532 3.03828 12.1082 3.17312 11.8925L3.32593 11.6588H7.41593C11.0025 11.6588 11.5059 11.6768 11.6318 11.8026ZM9.97779 14.706C10.1216 14.9847 10.0857 15.2364 9.86992 15.3802C9.69913 15.5061 9.22271 15.524 6.54399 15.524C3.53268 15.524 3.40683 15.5151 3.23604 15.3443C3.0203 15.1285 3.01131 14.9218 3.20907 14.6971C3.34391 14.5442 3.56863 14.5353 6.6159 14.5353C9.75307 14.5353 9.8879 14.5442 9.97779 14.706ZM18.3196 17.4657C18.5893 17.6454 18.5893 18.0769 18.3196 18.2567C18.1398 18.3825 17.2858 18.4005 10.8587 18.4005C6.535 18.4005 3.5147 18.3646 3.38885 18.3196C2.98435 18.1668 2.96637 17.5645 3.3529 17.4117C3.46076 17.3668 6.83164 17.3308 10.8317 17.3308C17.2858 17.3218 18.1398 17.3398 18.3196 17.4657Z" fill="black"/>
<circle cx="7" cy="14.7031" r="5.5" fill="#FF0000" stroke="white"/>
<g clip-path="url(#clip0_27_419)">
<g clip-path="url(#clip1_27_419)">
<mask id="mask0_27_419" style="mask-type:luminance" maskUnits="userSpaceOnUse" x="-1" y="7" width="16" height="16">
<path d="M15 7H-1V23H15V7Z" fill="white"/>
</mask>
<g mask="url(#mask0_27_419)">
<path d="M14 9.41005L12.5899 8L7.00073 13.5907L1.41005 8L0 9.41005L5.59068 15.0007L0 20.5899L1.41005 22L7.00073 16.4093L12.5914 22L14.0015 20.5899L8.41078 15.0007L14 9.41005Z" fill="white"/>
</g>
</g>
</g>
<defs>
<clipPath id="clip0_27_419">
<rect x="3" y="11" width="8" height="8" rx="4" fill="white"/>
</clipPath>
<clipPath id="clip1_27_419">
<rect width="16" height="16" fill="white" transform="translate(-1 7)"/>
</clipPath>
</defs>
</svg>
