<svg width="24" height="24" viewBox="0 0 24 24" fill="none" xmlns="http://www.w3.org/2000/svg">
<g clip-path="url(#clip0_27_304)">
<path d="M4.42318 0.258738L4.3059 0.376663L4.29752 5.70291C4.29333 9.10306 4.30171 11.0881 4.33103 11.206C4.36035 11.3387 4.42318 11.4321 4.55303 11.5352C4.65356 11.6188 4.74571 11.717 4.75828 11.7564C4.77085 11.7957 4.88394 11.9038 5.00542 11.9971C5.12689 12.0905 5.2735 12.228 5.33214 12.3017C5.39078 12.3755 5.50388 12.4737 5.59184 12.5278C5.67561 12.5769 5.83479 12.7096 5.94788 12.8226C6.05679 12.9356 6.2369 13.0928 6.34581 13.1714C6.45891 13.255 6.54687 13.3385 6.54687 13.3631C6.54687 13.3876 6.66834 13.5006 6.81914 13.6087C6.96993 13.7218 7.09141 13.8299 7.09141 13.8544C7.09141 13.879 7.21707 13.9969 7.37624 14.1099C7.53122 14.2278 7.68621 14.3654 7.71972 14.4146C7.75323 14.4637 7.88726 14.5816 8.01293 14.675C8.13859 14.7683 8.3187 14.9256 8.41086 15.0287C8.50301 15.127 8.64543 15.2597 8.73339 15.3186C8.81716 15.3776 8.89675 15.4562 8.90932 15.4955C8.92188 15.5348 9.03079 15.6429 9.15645 15.7363C9.27792 15.8296 9.40359 15.9427 9.4371 15.9869C9.47061 16.036 9.62978 16.1785 9.79314 16.3063C9.9565 16.434 10.1157 16.5765 10.145 16.6207C10.1743 16.6649 10.3084 16.778 10.4424 16.8713C10.5764 16.9647 10.6937 17.0777 10.7063 17.117C10.723 17.1563 10.811 17.2447 10.9115 17.3184C11.0121 17.3921 11.167 17.5346 11.2592 17.6329C11.3513 17.7312 11.5315 17.8884 11.6571 17.9818C11.988 18.2225 12.1765 18.2127 12.5703 17.9326C12.7378 17.8147 12.8928 17.6771 12.9179 17.628C12.9389 17.5789 13.0185 17.5002 13.0897 17.456C13.1609 17.4118 13.3075 17.284 13.4122 17.171C13.5169 17.0531 13.6887 16.8959 13.7934 16.8124C13.8981 16.7288 14.0196 16.6109 14.0656 16.5519C14.1117 16.493 14.2374 16.3898 14.3463 16.3259C14.451 16.262 14.6479 16.0999 14.7777 15.9672C14.9118 15.8296 15.0542 15.7068 15.0919 15.6921C15.1338 15.6773 15.1966 15.6085 15.2343 15.5447C15.272 15.4808 15.4144 15.3334 15.5526 15.2253C15.6909 15.1172 15.804 15.0091 15.804 14.9845C15.804 14.96 15.9506 14.8322 16.1307 14.6946C16.4909 14.4096 16.7464 14.1885 17.0061 13.9232C17.1067 13.82 17.2658 13.6775 17.3622 13.6038C17.4627 13.5301 17.5884 13.4073 17.647 13.3336C17.7057 13.2599 17.8188 13.1616 17.8983 13.1125C17.9779 13.0633 18.158 12.911 18.2963 12.7734C18.4303 12.6359 18.5602 12.5229 18.5769 12.5229C18.5979 12.5229 18.7026 12.4246 18.8115 12.3067C18.9204 12.1887 19.0586 12.061 19.1214 12.0266C19.1801 11.9873 19.3644 11.8104 19.5236 11.6335C19.8 11.3289 19.821 11.2945 19.8419 11.0439C19.8587 10.8965 19.8629 8.43973 19.8587 5.58007L19.8461 0.376663L19.7288 0.258738L19.6115 0.140814H12.076H4.54047L4.42318 0.258738ZM10.0528 3.61958C10.1785 3.70311 10.3209 3.99301 10.3251 4.16989C10.3293 4.27799 10.2958 4.36643 10.2162 4.45487L10.1073 4.58754L8.75433 4.60228C8.01293 4.61211 7.34692 4.60228 7.27571 4.58754C7.20031 4.5728 7.09141 4.4991 7.02857 4.42539C6.93642 4.3173 6.91967 4.26325 6.94061 4.13058C6.96993 3.90456 7.15005 3.63923 7.31341 3.58518C7.51028 3.51148 9.93556 3.54096 10.0528 3.61958ZM16.9852 6.82319C17.2198 7.03938 17.2533 7.49634 17.048 7.67814C16.9307 7.78132 16.9266 7.78132 12.1682 7.79606C7.02439 7.81572 7.1668 7.82063 6.99925 7.5553C6.88616 7.37841 6.93642 7.09834 7.11654 6.88215L7.25058 6.72492H12.0676C16.7925 6.72492 16.8847 6.72492 16.9852 6.82319ZM16.8051 9.91378C17.0815 9.97766 17.1653 10.1054 17.1653 10.4641C17.1653 10.7393 17.1527 10.7786 17.048 10.8719L16.9307 10.9751H12.076H7.22126L7.10397 10.8719C6.99925 10.7786 6.98669 10.7393 6.98669 10.469C6.98669 10.2233 7.00344 10.1496 7.08722 10.0464C7.14167 9.97766 7.24639 9.91378 7.3176 9.90396C7.58149 9.86465 16.6292 9.87448 16.8051 9.91378Z" fill="black"/>
<path d="M2.9278 5.84048C2.84402 5.94858 2.71417 6.07142 2.63877 6.11564C2.56338 6.15986 2.43353 6.27287 2.34975 6.36132C2.26179 6.44976 2.08586 6.59225 1.95182 6.67087C1.81778 6.74948 1.6628 6.87232 1.60416 6.94602C1.54551 7.01973 1.41566 7.12782 1.31094 7.1917C1.1057 7.31454 0.640747 7.85502 0.640747 7.96803C0.640747 8.04665 0.837618 8.29724 0.900449 8.29724C0.917203 8.29724 1.01354 8.38077 1.11407 8.48887C1.21041 8.59205 1.3277 8.70015 1.37796 8.72963C1.48687 8.79842 2.1068 9.35364 2.35813 9.61406C2.46285 9.72216 2.5927 9.83517 2.65134 9.86956C2.70998 9.89904 2.83564 10.0268 2.93198 10.1496C3.08697 10.3413 3.12048 10.3609 3.19587 10.3118C3.24614 10.2823 3.30059 10.1988 3.32573 10.13C3.35086 10.0514 3.36342 9.20132 3.35505 7.92873C3.34248 5.96332 3.33829 5.8454 3.26289 5.74713C3.1498 5.60464 3.10372 5.61446 2.9278 5.84048Z" fill="black"/>
<path d="M20.8681 5.7766C20.7843 5.88961 20.7634 9.98256 20.8388 10.1594C20.9519 10.41 21.0231 10.4051 21.2493 10.1251C21.3624 9.98748 21.4755 9.86955 21.5006 9.86955C21.5258 9.86955 21.6221 9.78602 21.7226 9.68284C21.819 9.57966 21.9656 9.44208 22.0452 9.3782C22.1247 9.31433 22.263 9.19149 22.3467 9.10304C22.4347 9.00969 22.5855 8.88194 22.6818 8.80823C22.7824 8.73453 22.9415 8.59204 23.0379 8.48886C23.1384 8.38076 23.2306 8.29723 23.2515 8.29723C23.3185 8.29723 23.5112 8.05647 23.5112 7.97785C23.5112 7.85993 23.0546 7.31944 22.862 7.20643C22.7698 7.15238 22.6274 7.03446 22.5478 6.95093C22.4682 6.86248 22.3174 6.73473 22.2085 6.66103C22.1038 6.59224 21.9279 6.44484 21.8148 6.33674C21.7017 6.22373 21.5802 6.13528 21.5509 6.13528C21.5216 6.13528 21.4043 6.03701 21.2954 5.91418C21.0817 5.67833 20.9603 5.63902 20.8681 5.7766Z" fill="black"/>
<path d="M0.234432 9.36346C0.163223 9.49121 0.159034 9.87938 0.146468 16.1834C0.14228 19.8587 0.146468 22.9395 0.159034 23.0279C0.188356 23.2196 0.347527 23.3571 0.485756 23.3129C0.540209 23.2982 0.67006 23.1999 0.77059 23.0967C0.871119 22.9935 1.05123 22.8461 1.16433 22.7724C1.28162 22.6987 1.43241 22.5759 1.49943 22.4973C1.57064 22.4236 1.72143 22.3007 1.84291 22.2319C1.96438 22.1632 2.12355 22.0403 2.19895 21.9617C2.27434 21.888 2.43352 21.7652 2.54661 21.6964C2.6639 21.6276 2.80213 21.5146 2.86077 21.4409C2.91941 21.3672 3.05345 21.2591 3.15817 21.1952C3.26289 21.1313 3.43044 20.9987 3.53097 20.9004C3.63149 20.8021 3.79904 20.6694 3.90376 20.6056C4.00848 20.5417 4.14252 20.4336 4.20116 20.3599C4.2598 20.2862 4.40222 20.1732 4.51532 20.1044C4.6326 20.0356 4.80015 19.9079 4.8923 19.8243C4.98446 19.7359 5.15619 19.6032 5.26929 19.5246C5.38657 19.4509 5.55831 19.3035 5.65465 19.1954C5.75518 19.0922 5.8599 19.0087 5.89341 19.0087C5.92692 19.0087 6.04421 18.9301 6.14892 18.8318C6.25783 18.7384 6.47564 18.5616 6.63063 18.4436C6.78561 18.3257 6.92803 18.2078 6.94059 18.1783C6.95735 18.1488 7.09558 18.0407 7.25056 17.9326C7.40554 17.8294 7.5689 17.6919 7.61498 17.6329C7.66106 17.569 7.78253 17.4757 7.88725 17.4216C8.17208 17.2742 8.29356 17.1563 8.41503 16.9155C8.56163 16.6207 8.53231 16.4979 8.24329 16.2768C8.11763 16.1785 8.01291 16.0753 8.01291 16.0557C8.01291 16.0311 7.89981 15.9279 7.76577 15.8149C7.62755 15.7068 7.48932 15.5791 7.46 15.5299C7.43068 15.4808 7.30083 15.3579 7.17097 15.2646C7.04112 15.1663 6.91965 15.0631 6.9029 15.0337C6.89033 15.0042 6.73953 14.8715 6.57617 14.7388C6.40863 14.6062 6.23689 14.4489 6.19081 14.39C6.14473 14.331 6.05258 14.2475 5.98556 14.2082C5.91854 14.1689 5.77613 14.0411 5.67141 13.9281C5.56669 13.8151 5.41171 13.6726 5.33212 13.6136C5.25253 13.5596 5.16038 13.4662 5.13106 13.4122C5.10593 13.3532 4.98027 13.2402 4.8546 13.1616C4.72894 13.0781 4.54464 12.9258 4.44411 12.8226C4.34777 12.7243 4.17603 12.5671 4.06712 12.4786C3.95403 12.3951 3.86606 12.3017 3.86606 12.2821C3.86606 12.2575 3.74459 12.1494 3.5938 12.0364C3.443 11.9283 3.30896 11.8055 3.2964 11.7613C3.28383 11.7219 3.16236 11.6089 3.02832 11.5156C2.89428 11.4222 2.76024 11.3092 2.73092 11.2601C2.69741 11.2159 2.56756 11.1028 2.44189 11.0095C2.31623 10.9161 2.12774 10.7442 2.02302 10.6311C1.9183 10.5181 1.76332 10.3756 1.67954 10.3167C1.59158 10.2528 1.52037 10.184 1.52037 10.1594C1.52037 10.1349 1.41984 10.0366 1.29418 9.94325C1.16852 9.8499 1.05123 9.74671 1.03867 9.71723C0.971649 9.59931 0.498322 9.2308 0.40617 9.2308C0.343339 9.2308 0.280508 9.27993 0.234432 9.36346Z" fill="black"/>
<path d="M23.4191 9.45191C23.2976 9.57475 23.0714 9.77129 22.9164 9.89413C22.7573 10.017 22.6316 10.1349 22.6316 10.1595C22.6316 10.184 22.5604 10.2528 22.4766 10.3167C22.3887 10.3757 22.2504 10.4985 22.1666 10.5918C22.0829 10.6852 21.9028 10.8523 21.7645 10.9653C21.4336 11.2355 21.132 11.5107 20.8472 11.7957C20.7215 11.9283 20.6001 12.0315 20.5749 12.0315C20.554 12.0315 20.4451 12.1249 20.3362 12.2428C20.2273 12.3607 20.0723 12.5081 19.9927 12.572C19.9131 12.6359 19.7665 12.7685 19.6702 12.8717C19.578 12.9749 19.4272 13.0977 19.3351 13.1518C19.2471 13.2058 19.1214 13.3188 19.0502 13.4073C18.9832 13.4957 18.8575 13.6038 18.7696 13.6579C18.6858 13.707 18.5769 13.8102 18.5308 13.879C18.4806 13.9527 18.3423 14.0903 18.2209 14.1787C18.1036 14.2721 17.9486 14.4096 17.8774 14.4833C17.8104 14.557 17.6847 14.6701 17.6051 14.7339C17.5255 14.7978 17.3789 14.9305 17.2868 15.0337C17.1904 15.1368 17.048 15.2548 16.9726 15.299C16.893 15.3481 16.7422 15.4759 16.6375 15.5889C16.3778 15.8591 16.0343 16.1785 15.8165 16.3603C15.6909 16.4586 15.6364 16.5372 15.6364 16.6207C15.6364 16.778 15.9338 17.1612 16.2647 17.4216C16.8093 17.8491 16.9601 17.9719 17.1234 18.1193C17.2156 18.2029 17.425 18.3601 17.5884 18.4682C17.7517 18.5763 17.9235 18.7139 17.9653 18.7679C18.0072 18.8269 18.1287 18.9202 18.2334 18.9841C18.3381 19.048 18.468 19.1561 18.5266 19.2298C18.5853 19.3035 18.7738 19.446 18.9455 19.5492C19.1173 19.6524 19.2974 19.785 19.3434 19.844C19.3895 19.9029 19.5026 19.9963 19.5948 20.0504C19.6869 20.1093 19.8335 20.2272 19.9173 20.3157C20.0053 20.4041 20.1686 20.5368 20.2859 20.6056C20.4032 20.6744 20.5666 20.807 20.6545 20.8955C20.7383 20.9839 20.8891 21.1068 20.9854 21.1657C21.0818 21.2198 21.2242 21.3377 21.2954 21.4212C21.3708 21.5097 21.53 21.6276 21.6514 21.6915C21.7729 21.7553 21.9446 21.8831 22.0326 21.9715C22.1206 22.0649 22.2672 22.1877 22.3593 22.2418C22.4515 22.2958 22.573 22.399 22.6316 22.4727C22.6902 22.5464 22.8494 22.6742 22.9876 22.7528C23.1259 22.8363 23.306 22.9739 23.3856 23.0623C23.6453 23.3571 23.8882 23.3768 23.972 23.1115C23.9971 23.0279 24.0139 20.5614 24.0139 16.2669C24.0139 9.65828 24.0139 9.54527 23.9301 9.38804C23.8128 9.16693 23.6913 9.18167 23.4191 9.45191Z" fill="black"/>
<path d="M14.4552 17.5592C14.3882 17.6034 14.3379 17.6575 14.3379 17.682C14.3379 17.7066 14.2122 17.8245 14.0573 17.9474C13.8981 18.0751 13.6928 18.2471 13.5965 18.3306C13.5001 18.4191 13.3494 18.5517 13.2614 18.6303C13.052 18.8072 12.7587 19.0676 12.5828 19.2396C12.3608 19.4558 12.277 19.4951 12.0718 19.5C11.9378 19.5 11.8414 19.4656 11.7493 19.387C11.6822 19.3281 11.544 19.2101 11.4477 19.1315C11.3513 19.048 11.1838 18.8908 11.0749 18.7827C10.9702 18.6697 10.8235 18.5419 10.7482 18.4977C10.6769 18.4584 10.5303 18.3306 10.4214 18.2225C10.3125 18.1144 10.1659 17.9867 10.0947 17.9425C10.0193 17.8982 9.88527 17.7901 9.79731 17.7017C9.59206 17.4953 9.49153 17.4904 9.28628 17.6869C9.19413 17.7705 9.03077 17.8933 8.91349 17.9621C8.80039 18.0309 8.63284 18.1636 8.54907 18.252C8.4611 18.3404 8.30193 18.4682 8.19302 18.537C8.08412 18.6009 7.94589 18.7139 7.88725 18.7876C7.8286 18.8613 7.70713 18.9595 7.61498 19.0087C7.52283 19.0529 7.35947 19.1708 7.25056 19.2691C7.14165 19.3674 6.97829 19.4902 6.88195 19.5492C6.7898 19.6032 6.639 19.7261 6.55523 19.8145C6.47145 19.9029 6.30809 20.0356 6.19081 20.1093C6.07771 20.1879 5.9353 20.3009 5.87665 20.3648C5.81801 20.4238 5.65046 20.5564 5.49967 20.6547C5.34887 20.753 5.21064 20.866 5.19389 20.9053C5.17713 20.9446 5.07242 21.0281 4.96351 21.092C4.8546 21.1559 4.65354 21.3082 4.51532 21.431C4.37709 21.549 4.19697 21.6865 4.11739 21.7357C4.0378 21.7799 3.91633 21.8831 3.84512 21.9568C3.7781 22.0305 3.60636 22.1632 3.46813 22.2516C3.3299 22.34 3.15398 22.4776 3.07858 22.5513C3.00318 22.6299 2.86077 22.738 2.76442 22.797C2.66808 22.856 2.53404 22.9591 2.47121 23.0279C2.40838 23.1016 2.23664 23.2245 2.09423 23.308C1.88479 23.4308 1.83034 23.48 1.82196 23.5881C1.81358 23.6863 1.83871 23.7404 1.92249 23.8092C2.03558 23.8927 2.46284 23.8976 11.9503 23.9124C17.3999 23.9222 21.9404 23.9124 22.041 23.8976C22.1541 23.878 22.263 23.819 22.3258 23.7453C22.4305 23.6225 22.4305 23.6176 22.3551 23.5193C22.3091 23.4652 22.1834 23.3621 22.0661 23.2982C21.953 23.2294 21.7938 23.1065 21.7184 23.0328C21.643 22.9542 21.5006 22.8461 21.4043 22.7872C21.3079 22.7282 21.1572 22.6054 21.0734 22.5169C20.9854 22.4285 20.8262 22.3007 20.7131 22.2319C20.6042 22.1681 20.487 22.0747 20.4534 22.0305C20.4241 21.9863 20.2691 21.8634 20.1142 21.7553C19.955 21.6472 19.8084 21.5195 19.7833 21.4654C19.7581 21.4163 19.6115 21.3033 19.4565 21.2148C19.3015 21.1264 19.1047 20.9839 19.0209 20.8955C18.9371 20.807 18.7863 20.6842 18.6858 20.6252C18.5853 20.5663 18.4387 20.4483 18.3507 20.3599C18.2669 20.2715 18.1161 20.1535 18.0114 20.0995C17.9109 20.0454 17.7517 19.9275 17.6637 19.8292C17.5716 19.7359 17.4082 19.6032 17.291 19.5344C17.1779 19.4706 17.0438 19.3674 17.0019 19.3084C16.96 19.2544 16.8344 19.1463 16.7297 19.0726C16.6249 18.9989 16.4448 18.8564 16.3317 18.7532C16.2186 18.6451 16.0595 18.5272 15.9799 18.4879C15.9003 18.4485 15.7621 18.3404 15.6741 18.2471C15.5861 18.1537 15.4144 18.0211 15.2929 17.9474C15.1715 17.8737 15.0039 17.7557 14.9201 17.6771C14.7316 17.5002 14.5976 17.4708 14.4552 17.5592Z" fill="black"/>
</g>
<defs>
<clipPath id="clip0_27_304">
<rect width="24" height="24" fill="white"/>
</clipPath>
</defs>
</svg>
