<svg width="24" height="24" viewBox="0 0 24 24" fill="none" xmlns="http://www.w3.org/2000/svg">
<rect width="24" height="20" transform="translate(0 2)" fill="#1B75BB"/>
<path d="M11.3011 8.72727V16H9.97301L6.80895 11.4226H6.75568V16H5.21804V8.72727H6.56747L9.70668 13.3011H9.7706V8.72727H11.3011ZM12.5716 16V8.72727H15.4409C15.9925 8.72727 16.4624 8.83262 16.8507 9.04332C17.2389 9.25166 17.5349 9.54167 17.7385 9.91335C17.9444 10.2827 18.0474 10.7088 18.0474 11.1918C18.0474 11.6747 17.9432 12.1009 17.7349 12.4702C17.5266 12.8395 17.2247 13.1271 16.8294 13.3331C16.4364 13.5391 15.9605 13.642 15.4018 13.642H13.573V12.4098H15.1532C15.4492 12.4098 15.693 12.3589 15.8848 12.2571C16.0789 12.1529 16.2233 12.0097 16.318 11.8274C16.4151 11.6428 16.4636 11.4309 16.4636 11.1918C16.4636 10.9503 16.4151 10.7396 16.318 10.5597C16.2233 10.3774 16.0789 10.2365 15.8848 10.1371C15.6906 10.0353 15.4444 9.98438 15.1461 9.98438H14.1092V16H12.5716Z" fill="white"/>
</svg>
