<svg width="24" height="24" viewBox="0 0 24 24" fill="none" xmlns="http://www.w3.org/2000/svg">
<path d="M21 4C19.89 3.65 18.67 3.5 17.5 3.5C15.55 3.5 13.45 3.9 12 5C10.55 3.9 8.45 3.5 6.5 3.5C4.55 3.5 2.45 3.9 1 5V19.65C1 19.9 1.25 20.15 1.5 20.15C1.6 20.15 1.65 20.1 1.75 20.1C3.1 19.45 5.05 19 6.5 19C8.45 19 10.55 19.4 12 20.5C13.35 19.65 15.8 19 17.5 19C19.15 19 20.85 19.3 22.25 20.05C22.35 20.1 22.4 20.1 22.5 20.1C22.75 20.1 23 19.85 23 19.6V5C22.4 4.55 21.75 4.25 21 4ZM21 17.5C19.9 17.15 18.7 17 17.5 17C15.8 17 13.35 17.65 12 18.5V7C13.35 6.15 15.8 5.5 17.5 5.5C18.7 5.5 19.9 5.65 21 6V17.5Z" fill="black"/>
<path d="M14.3948 15V7.72727H17.2641C17.8157 7.72727 18.2857 7.83262 18.6739 8.04332C19.0622 8.25166 19.3581 8.54167 19.5617 8.91335C19.7677 9.28267 19.8707 9.70881 19.8707 10.1918C19.8707 10.6747 19.7665 11.1009 19.5582 11.4702C19.3498 11.8395 19.048 12.1271 18.6526 12.3331C18.2596 12.5391 17.7838 12.642 17.2251 12.642H15.3962V11.4098H16.9765C17.2724 11.4098 17.5162 11.3589 17.708 11.2571C17.9021 11.1529 18.0465 11.0097 18.1412 10.8274C18.2383 10.6428 18.2868 10.4309 18.2868 10.1918C18.2868 9.95028 18.2383 9.73958 18.1412 9.55966C18.0465 9.37737 17.9021 9.23651 17.708 9.13707C17.5139 9.03527 17.2677 8.98438 16.9694 8.98438H15.9324V15H14.3948Z" fill="black"/>
</svg>
