<svg width="24" height="24" viewBox="0 0 24 24" fill="none" xmlns="http://www.w3.org/2000/svg">
<rect width="24" height="20" transform="translate(0 2)" fill="#1B75BB"/>
<path d="M4.60964 16V8.72727H7.47896C8.03057 8.72727 8.5005 8.83262 8.88876 9.04332C9.27702 9.25166 9.57295 9.54167 9.77654 9.91335C9.98251 10.2827 10.0855 10.7088 10.0855 11.1918C10.0855 11.6747 9.98133 12.1009 9.77299 12.4702C9.56466 12.8395 9.26281 13.1271 8.86745 13.3331C8.47446 13.5391 7.99861 13.642 7.4399 13.642H5.61106V12.4098H7.19132C7.48725 12.4098 7.73109 12.3589 7.92285 12.2571C8.11698 12.1529 8.26139 12.0097 8.35609 11.8274C8.45315 11.6428 8.50169 11.4309 8.50169 11.1918C8.50169 10.9503 8.45315 10.7396 8.35609 10.5597C8.26139 10.3774 8.11698 10.2365 7.92285 10.1371C7.72872 10.0353 7.48251 9.98438 7.18422 9.98438H6.14728V16H4.60964ZM14.2235 8.38636L11.8797 17.0938H10.5764L12.9202 8.38636H14.2235ZM14.9807 16V8.72727H16.5184V14.7322H19.6363V16H14.9807Z" fill="white"/>
</svg>
