<svg width="24" height="24" viewBox="0 0 24 24" fill="none" xmlns="http://www.w3.org/2000/svg">
<rect x="1" y="3" width="22" height="18" fill="#BBD6EB"/>
<rect x="1" y="3" width="22" height="18" stroke="#1B75BB" stroke-width="2"/>
<path d="M5.13503 16V8.72727H8.00435C8.55596 8.72727 9.02589 8.83262 9.41415 9.04332C9.80241 9.25166 10.0983 9.54167 10.3019 9.91335C10.5079 10.2827 10.6109 10.7088 10.6109 11.1918C10.6109 11.6747 10.5067 12.1009 10.2984 12.4702C10.0901 12.8395 9.7882 13.1271 9.39284 13.3331C8.99985 13.5391 8.524 13.642 7.96529 13.642H6.13645V12.4098H7.71671C8.01264 12.4098 8.25648 12.3589 8.44824 12.2571C8.64237 12.1529 8.78678 12.0097 8.88148 11.8274C8.97855 11.6428 9.02708 11.4309 9.02708 11.1918C9.02708 10.9503 8.97855 10.7396 8.88148 10.5597C8.78678 10.3774 8.64237 10.2365 8.44824 10.1371C8.25411 10.0353 8.0079 9.98438 7.70961 9.98438H6.67267V16H5.13503ZM18.0265 11.2734H16.4711C16.4427 11.0722 16.3847 10.8935 16.2971 10.7372C16.2095 10.5786 16.0971 10.4437 15.9598 10.3324C15.8225 10.2211 15.6639 10.1359 15.4839 10.0767C15.3064 10.0175 15.1134 9.98793 14.9051 9.98793C14.5287 9.98793 14.2008 10.0814 13.9214 10.2685C13.6421 10.4531 13.4255 10.723 13.2716 11.0781C13.1177 11.4309 13.0407 11.8594 13.0407 12.3636C13.0407 12.8821 13.1177 13.3177 13.2716 13.6705C13.4278 14.0232 13.6456 14.2895 13.925 14.4695C14.2043 14.6494 14.5275 14.7393 14.8944 14.7393C15.1004 14.7393 15.291 14.7121 15.4662 14.6577C15.6437 14.6032 15.8012 14.5239 15.9385 14.4197C16.0758 14.3132 16.1894 14.1842 16.2794 14.0327C16.3717 13.8812 16.4356 13.7083 16.4711 13.5142L18.0265 13.5213C17.9863 13.8551 17.8857 14.1771 17.7247 14.4872C17.5661 14.795 17.3518 15.0708 17.0819 15.3146C16.8144 15.5561 16.4948 15.7479 16.1231 15.8899C15.7538 16.0296 15.336 16.0994 14.8696 16.0994C14.2209 16.0994 13.6409 15.9527 13.1295 15.6591C12.6205 15.3655 12.2181 14.9406 11.9221 14.3842C11.6286 13.8279 11.4818 13.1544 11.4818 12.3636C11.4818 11.5705 11.6309 10.8958 11.9292 10.3395C12.2275 9.78314 12.6324 9.35937 13.1437 9.06818C13.6551 8.77462 14.2304 8.62784 14.8696 8.62784C15.291 8.62784 15.6816 8.68703 16.0415 8.8054C16.4037 8.92377 16.7245 9.09659 17.0038 9.32386C17.2832 9.54877 17.5104 9.82457 17.6856 10.1513C17.8632 10.478 17.9768 10.852 18.0265 11.2734Z" fill="black"/>
</svg>
