<svg width="24" height="24" viewBox="0 0 24 24" fill="none" xmlns="http://www.w3.org/2000/svg">
<rect width="24" height="20" transform="translate(0 2)" fill="white"/>
<path d="M5.2571 16V8.72727H8.12642C8.67803 8.72727 9.14796 8.83262 9.53622 9.04332C9.92448 9.25166 10.2204 9.54167 10.424 9.91335C10.63 10.2827 10.733 10.7088 10.733 11.1918C10.733 11.6747 10.6288 12.1009 10.4205 12.4702C10.2121 12.8395 9.91027 13.1271 9.51491 13.3331C9.12192 13.5391 8.64607 13.642 8.08736 13.642H6.25852V12.4098H7.83878C8.13471 12.4098 8.37855 12.3589 8.57031 12.2571C8.76444 12.1529 8.90885 12.0097 9.00355 11.8274C9.10062 11.6428 9.14915 11.4309 9.14915 11.1918C9.14915 10.9503 9.10062 10.7396 9.00355 10.5597C8.90885 10.3774 8.76444 10.2365 8.57031 10.1371C8.37618 10.0353 8.12997 9.98438 7.83168 9.98438H6.79474V16H5.2571ZM14.3098 16H11.7317V8.72727H14.3311C15.0627 8.72727 15.6924 8.87287 16.2203 9.16406C16.7483 9.45289 17.1543 9.86837 17.4384 10.4105C17.7248 10.9527 17.8681 11.6013 17.8681 12.3565C17.8681 13.1141 17.7248 13.7652 17.4384 14.3097C17.1543 14.8542 16.7459 15.272 16.2132 15.5632C15.6829 15.8544 15.0485 16 14.3098 16ZM13.2694 14.6825H14.2459C14.7005 14.6825 15.0828 14.602 15.3929 14.4411C15.7054 14.2777 15.9398 14.0256 16.0961 13.6847C16.2547 13.3414 16.334 12.8987 16.334 12.3565C16.334 11.8191 16.2547 11.38 16.0961 11.0391C15.9398 10.6982 15.7066 10.4472 15.3965 10.2862C15.0864 10.1252 14.704 10.0447 14.2495 10.0447H13.2694V14.6825Z" fill="black"/>
</svg>
