<svg width="24" height="24" viewBox="0 0 24 24" fill="none" xmlns="http://www.w3.org/2000/svg">
<rect width="24" height="20" transform="translate(0 2)" fill="#D0011B"/>
<path d="M6.33327 16V8.72727H9.20259C9.7542 8.72727 10.2241 8.83262 10.6124 9.04332C11.0007 9.25166 11.2966 9.54167 11.5002 9.91335C11.7061 10.2827 11.8091 10.7088 11.8091 11.1918C11.8091 11.6747 11.705 12.1009 11.4966 12.4702C11.2883 12.8395 10.9864 13.1271 10.5911 13.3331C10.1981 13.5391 9.72224 13.642 9.16353 13.642H7.33469V12.4098H8.91495C9.21088 12.4098 9.45472 12.3589 9.64648 12.2571C9.84061 12.1529 9.98503 12.0097 10.0797 11.8274C10.1768 11.6428 10.2253 11.4309 10.2253 11.1918C10.2253 10.9503 10.1768 10.7396 10.0797 10.5597C9.98503 10.3774 9.84061 10.2365 9.64648 10.1371C9.45236 10.0353 9.20614 9.98438 8.90785 9.98438H7.87092V16H6.33327ZM12.8079 16V8.72727H17.7085V9.99503H14.3455V11.728H17.4563V12.9957H14.3455V14.7322H17.7227V16H12.8079Z" fill="white"/>
</svg>
