<svg width="24" height="24" viewBox="0 0 24 24" fill="none" xmlns="http://www.w3.org/2000/svg">
<rect width="24" height="20" transform="translate(0 2)" fill="white"/>
<path d="M6.46999 16V8.72727H9.33931C9.89092 8.72727 10.3609 8.83262 10.7491 9.04332C11.1374 9.25166 11.4333 9.54167 11.6369 9.91335C11.8429 10.2827 11.9458 10.7088 11.9458 11.1918C11.9458 11.6747 11.8417 12.1009 11.6333 12.4702C11.425 12.8395 11.1232 13.1271 10.7278 13.3331C10.3348 13.5391 9.85896 13.642 9.30025 13.642H7.47141V12.4098H9.05167C9.3476 12.4098 9.59144 12.3589 9.7832 12.2571C9.97733 12.1529 10.1217 12.0097 10.2164 11.8274C10.3135 11.6428 10.362 11.4309 10.362 11.1918C10.362 10.9503 10.3135 10.7396 10.2164 10.5597C10.1217 10.3774 9.97733 10.2365 9.7832 10.1371C9.58907 10.0353 9.34286 9.98438 9.04457 9.98438H8.00763V16H6.46999ZM12.9446 16V8.72727H17.7599V9.99503H14.4822V11.728H17.4403V12.9957H14.4822V16H12.9446Z" fill="black"/>
</svg>
