<svg width="24" height="24" viewBox="0 0 24 24" fill="none" xmlns="http://www.w3.org/2000/svg">
<rect width="24" height="20" transform="translate(0 2)" fill="#E6E6E6"/>
<path d="M6.55788 16V8.72727H9.4272C9.97881 8.72727 10.4487 8.83262 10.837 9.04332C11.2253 9.25166 11.5212 9.54167 11.7248 9.91335C11.9308 10.2827 12.0337 10.7088 12.0337 11.1918C12.0337 11.6747 11.9296 12.1009 11.7212 12.4702C11.5129 12.8395 11.2111 13.1271 10.8157 13.3331C10.4227 13.5391 9.94685 13.642 9.38814 13.642H7.5593V12.4098H9.13956C9.43549 12.4098 9.67933 12.3589 9.87109 12.2571C10.0652 12.1529 10.2096 12.0097 10.3043 11.8274C10.4014 11.6428 10.4499 11.4309 10.4499 11.1918C10.4499 10.9503 10.4014 10.7396 10.3043 10.5597C10.2096 10.3774 10.0652 10.2365 9.87109 10.1371C9.67696 10.0353 9.43075 9.98438 9.13246 9.98438H8.09553V16H6.55788ZM13.0325 16V8.72727H14.5701V14.7322H17.688V16H13.0325Z" fill="black"/>
</svg>
