<svg width="24" height="24" viewBox="0 0 24 24" fill="none" xmlns="http://www.w3.org/2000/svg">
<rect x="1" y="3" width="22" height="18" fill="#BBD6EB"/>
<rect x="1" y="3" width="22" height="18" stroke="#1B75BB" stroke-width="2"/>
<path d="M5.48366 16V8.72727H8.35298C8.90459 8.72727 9.37453 8.83262 9.76278 9.04332C10.151 9.25166 10.447 9.54167 10.6506 9.91335C10.8565 10.2827 10.9595 10.7088 10.9595 11.1918C10.9595 11.6747 10.8554 12.1009 10.647 12.4702C10.4387 12.8395 10.1368 13.1271 9.74148 13.3331C9.34848 13.5391 8.87263 13.642 8.31392 13.642H6.48509V12.4098H8.06534C8.36127 12.4098 8.60511 12.3589 8.79688 12.2571C8.991 12.1529 9.13542 12.0097 9.23011 11.8274C9.32718 11.6428 9.37571 11.4309 9.37571 11.1918C9.37571 10.9503 9.32718 10.7396 9.23011 10.5597C9.13542 10.3774 8.991 10.2365 8.79688 10.1371C8.60275 10.0353 8.35653 9.98438 8.05824 9.98438H7.02131V16H5.48366ZM18.6415 12.3636C18.6415 13.1567 18.4912 13.8314 18.1905 14.3878C17.8922 14.9441 17.485 15.3691 16.9689 15.6626C16.4552 15.9538 15.8775 16.0994 15.236 16.0994C14.5897 16.0994 14.0096 15.9527 13.4959 15.6591C12.9822 15.3655 12.5762 14.9406 12.2779 14.3842C11.9796 13.8279 11.8304 13.1544 11.8304 12.3636C11.8304 11.5705 11.9796 10.8958 12.2779 10.3395C12.5762 9.78314 12.9822 9.35937 13.4959 9.06818C14.0096 8.77462 14.5897 8.62784 15.236 8.62784C15.8775 8.62784 16.4552 8.77462 16.9689 9.06818C17.485 9.35937 17.8922 9.78314 18.1905 10.3395C18.4912 10.8958 18.6415 11.5705 18.6415 12.3636ZM17.0826 12.3636C17.0826 11.8499 17.0056 11.4167 16.8517 11.0639C16.7002 10.7112 16.486 10.4437 16.209 10.2614C15.932 10.0791 15.6077 9.98793 15.236 9.98793C14.8643 9.98793 14.54 10.0791 14.263 10.2614C13.986 10.4437 13.7705 10.7112 13.6167 11.0639C13.4651 11.4167 13.3894 11.8499 13.3894 12.3636C13.3894 12.8774 13.4651 13.3106 13.6167 13.6634C13.7705 14.0161 13.986 14.2836 14.263 14.4659C14.54 14.6482 14.8643 14.7393 15.236 14.7393C15.6077 14.7393 15.932 14.6482 16.209 14.4659C16.486 14.2836 16.7002 14.0161 16.8517 13.6634C17.0056 13.3106 17.0826 12.8774 17.0826 12.3636Z" fill="black"/>
</svg>
