<svg width="24" height="24" viewBox="0 0 24 24" fill="none" xmlns="http://www.w3.org/2000/svg">
<path d="M20 6.5H16V4.5C16 3.39 15.11 2.5 14 2.5H10C8.89 2.5 8 3.39 8 4.5V6.5H4C2.89 6.5 2.01 7.39 2.01 8.5L2 19.5C2 20.61 2.89 21.5 4 21.5H20C21.11 21.5 22 20.61 22 19.5V8.5C22 7.39 21.11 6.5 20 6.5ZM14 6.5H10V4.5H14V6.5Z" fill="black"/>
<path d="M9.3948 17.5V10.2273H12.2641C12.8157 10.2273 13.2857 10.3326 13.6739 10.5433C14.0622 10.7517 14.3581 11.0417 14.5617 11.4134C14.7677 11.7827 14.8707 12.2088 14.8707 12.6918C14.8707 13.1747 14.7665 13.6009 14.5582 13.9702C14.3498 14.3395 14.048 14.6271 13.6526 14.8331C13.2596 15.0391 12.7838 15.142 12.2251 15.142H10.3962V13.9098H11.9765C12.2724 13.9098 12.5162 13.8589 12.708 13.7571C12.9021 13.6529 13.0465 13.5097 13.1412 13.3274C13.2383 13.1428 13.2868 12.9309 13.2868 12.6918C13.2868 12.4503 13.2383 12.2396 13.1412 12.0597C13.0465 11.8774 12.9021 11.7365 12.708 11.6371C12.5139 11.5353 12.2677 11.4844 11.9694 11.4844H10.9324V17.5H9.3948Z" fill="white"/>
</svg>
