<svg width="24" height="24" viewBox="0 0 24 24" fill="none" xmlns="http://www.w3.org/2000/svg">
<rect width="24" height="20" transform="translate(0 2)" fill="#1B75BB"/>
<path d="M6.15749 16V8.72727H9.02681C9.57842 8.72727 10.0484 8.83262 10.4366 9.04332C10.8249 9.25166 11.1208 9.54167 11.3244 9.91335C11.5304 10.2827 11.6333 10.7088 11.6333 11.1918C11.6333 11.6747 11.5292 12.1009 11.3208 12.4702C11.1125 12.8395 10.8107 13.1271 10.4153 13.3331C10.0223 13.5391 9.54646 13.642 8.98775 13.642H7.15891V12.4098H8.73917C9.0351 12.4098 9.27894 12.3589 9.4707 12.2571C9.66483 12.1529 9.80924 12.0097 9.90394 11.8274C10.001 11.6428 10.0495 11.4309 10.0495 11.1918C10.0495 10.9503 10.001 10.7396 9.90394 10.5597C9.80924 10.3774 9.66483 10.2365 9.4707 10.1371C9.27657 10.0353 9.03036 9.98438 8.73207 9.98438H7.69513V16H6.15749ZM12.6321 16V8.72727H15.5014C16.053 8.72727 16.523 8.83262 16.9112 9.04332C17.2995 9.25166 17.5954 9.54167 17.799 9.91335C18.005 10.2827 18.108 10.7088 18.108 11.1918C18.108 11.6747 18.0038 12.1009 17.7955 12.4702C17.5871 12.8395 17.2853 13.1271 16.8899 13.3331C16.4969 13.5391 16.0211 13.642 15.4624 13.642H13.6335V12.4098H15.2138C15.5097 12.4098 15.7536 12.3589 15.9453 12.2571C16.1394 12.1529 16.2839 12.0097 16.3786 11.8274C16.4756 11.6428 16.5241 11.4309 16.5241 11.1918C16.5241 10.9503 16.4756 10.7396 16.3786 10.5597C16.2839 10.3774 16.1394 10.2365 15.9453 10.1371C15.7512 10.0353 15.505 9.98438 15.2067 9.98438H14.1697V16H12.6321Z" fill="white"/>
</svg>
