<svg width="24" height="24" viewBox="0 0 24 24" fill="none" xmlns="http://www.w3.org/2000/svg">
<rect width="24" height="20" transform="translate(0 2)" fill="#E6E6E6"/>
<path d="M5.55495 16V8.72727H8.42427C8.97588 8.72727 9.44582 8.83262 9.83407 9.04332C10.2223 9.25166 10.5183 9.54167 10.7219 9.91335C10.9278 10.2827 11.0308 10.7088 11.0308 11.1918C11.0308 11.6747 10.9266 12.1009 10.7183 12.4702C10.51 12.8395 10.2081 13.1271 9.81277 13.3331C9.41977 13.5391 8.94392 13.642 8.38521 13.642H6.55637V12.4098H8.13663C8.43256 12.4098 8.6764 12.3589 8.86816 12.2571C9.06229 12.1529 9.20671 12.0097 9.3014 11.8274C9.39847 11.6428 9.447 11.4309 9.447 11.1918C9.447 10.9503 9.39847 10.7396 9.3014 10.5597C9.20671 10.3774 9.06229 10.2365 8.86816 10.1371C8.67404 10.0353 8.42782 9.98438 8.12953 9.98438H7.0926V16H5.55495ZM11.7526 9.99503V8.72727H17.7256V9.99503H15.499V16H13.9791V9.99503H11.7526Z" fill="black"/>
</svg>
