<svg width="24" height="24" viewBox="0 0 24 24" fill="none" xmlns="http://www.w3.org/2000/svg">
<rect x="1" y="3" width="22" height="18" fill="#BBD6EB"/>
<rect x="1" y="3" width="22" height="18" stroke="#1B75BB" stroke-width="2"/>
<path d="M9.35085 16V8.72727H12.2202C12.7694 8.72727 13.2382 8.82552 13.6264 9.02202C14.017 9.21615 14.3142 9.49195 14.5178 9.84943C14.7237 10.2045 14.8267 10.6224 14.8267 11.103C14.8267 11.5859 14.7225 12.0014 14.5142 12.3494C14.3059 12.6951 14.004 12.9602 13.6087 13.1449C13.2157 13.3295 12.7398 13.4219 12.1811 13.4219H10.2599V12.1861H11.9325C12.2261 12.1861 12.4699 12.1458 12.6641 12.0653C12.8582 11.9848 13.0026 11.8641 13.0973 11.7031C13.1944 11.5421 13.2429 11.3421 13.2429 11.103C13.2429 10.8615 13.1944 10.6579 13.0973 10.4922C13.0026 10.3265 12.857 10.201 12.6605 10.1158C12.4664 10.0282 12.2214 9.98438 11.9254 9.98438H10.8885V16H9.35085ZM13.2784 12.6903L15.0859 16H13.3885L11.62 12.6903H13.2784Z" fill="black"/>
</svg>
