<svg width="24" height="24" viewBox="0 0 24 24" fill="none" xmlns="http://www.w3.org/2000/svg">
<rect width="24" height="20" transform="translate(0 2)" fill="#1B75BB"/>
<path d="M5.54519 16V8.72727H8.41451C8.96375 8.72727 9.4325 8.82552 9.82076 9.02202C10.2114 9.21615 10.5085 9.49195 10.7121 9.84943C10.9181 10.2045 11.021 10.6224 11.021 11.103C11.021 11.5859 10.9169 12.0014 10.7085 12.3494C10.5002 12.6951 10.1984 12.9602 9.803 13.1449C9.41001 13.3295 8.93416 13.4219 8.37544 13.4219H6.45428V12.1861H8.12686C8.42042 12.1861 8.66427 12.1458 8.8584 12.0653C9.05253 11.9848 9.19694 11.8641 9.29164 11.7031C9.3887 11.5421 9.43723 11.3421 9.43723 11.103C9.43723 10.8615 9.3887 10.6579 9.29164 10.4922C9.19694 10.3265 9.05134 10.201 8.85485 10.1158C8.66072 10.0282 8.41569 9.98438 8.11976 9.98438H7.08283V16H5.54519ZM9.47275 12.6903L11.2803 16H9.58283L7.81436 12.6903H9.47275ZM12.1077 16V8.72727H15.0196C15.5547 8.72727 16.0009 8.80658 16.3584 8.9652C16.7159 9.12382 16.9846 9.34399 17.1645 9.62571C17.3444 9.90507 17.4344 10.227 17.4344 10.5916C17.4344 10.8757 17.3776 11.1255 17.2639 11.3409C17.1503 11.554 16.9941 11.7292 16.7952 11.8665C16.5987 12.0014 16.3738 12.0973 16.1205 12.1541V12.2251C16.3975 12.237 16.6567 12.3151 16.8982 12.4595C17.142 12.6039 17.3397 12.8063 17.4912 13.0668C17.6427 13.3248 17.7185 13.6326 17.7185 13.9901C17.7185 14.3759 17.6226 14.7204 17.4308 15.0234C17.2414 15.3241 16.9609 15.562 16.5892 15.7372C16.2175 15.9124 15.7594 16 15.2149 16H12.1077ZM13.6453 14.7429H14.8989C15.3274 14.7429 15.6399 14.6612 15.8364 14.4979C16.0329 14.3321 16.1311 14.112 16.1311 13.8374C16.1311 13.6361 16.0826 13.4586 15.9855 13.3047C15.8885 13.1508 15.75 13.0301 15.57 12.9425C15.3925 12.8549 15.1806 12.8111 14.9344 12.8111H13.6453V14.7429ZM13.6453 11.7706H14.7852C14.9959 11.7706 15.183 11.7339 15.3463 11.6605C15.512 11.5848 15.6423 11.4782 15.7369 11.3409C15.834 11.2036 15.8825 11.0391 15.8825 10.8473C15.8825 10.5845 15.789 10.3726 15.602 10.2116C15.4173 10.0507 15.1546 9.97017 14.8137 9.97017H13.6453V11.7706Z" fill="white"/>
</svg>
