<svg width="24" height="24" viewBox="0 0 24 24" fill="none" xmlns="http://www.w3.org/2000/svg">
<rect width="24" height="20" transform="translate(0 2)" fill="#1B75BB"/>
<path d="M5.57449 16V8.72727H8.4438C8.99305 8.72727 9.4618 8.82552 9.85005 9.02202C10.2407 9.21615 10.5378 9.49195 10.7414 9.84943C10.9474 10.2045 11.0503 10.6224 11.0503 11.103C11.0503 11.5859 10.9462 12.0014 10.7378 12.3494C10.5295 12.6951 10.2277 12.9602 9.8323 13.1449C9.43931 13.3295 8.96345 13.4219 8.40474 13.4219H6.48358V12.1861H8.15616C8.44972 12.1861 8.69357 12.1458 8.8877 12.0653C9.08182 11.9848 9.22624 11.8641 9.32093 11.7031C9.418 11.5421 9.46653 11.3421 9.46653 11.103C9.46653 10.8615 9.418 10.6579 9.32093 10.4922C9.22624 10.3265 9.08064 10.201 8.88414 10.1158C8.69002 10.0282 8.44499 9.98438 8.14906 9.98438H7.11213V16H5.57449ZM9.50204 12.6903L11.3096 16H9.61213L7.84366 12.6903H9.50204ZM16.0823 10.8189C16.0539 10.5324 15.932 10.3099 15.7165 10.1513C15.5011 9.99266 15.2087 9.91335 14.8394 9.91335C14.5885 9.91335 14.3766 9.94886 14.2037 10.0199C14.0309 10.0885 13.8983 10.1844 13.806 10.3075C13.7161 10.4306 13.6711 10.5703 13.6711 10.7266C13.6663 10.8568 13.6936 10.9704 13.7528 11.0675C13.8143 11.1645 13.8983 11.2486 14.0049 11.3196C14.1114 11.3883 14.2345 11.4486 14.3742 11.5007C14.5139 11.5504 14.663 11.593 14.8216 11.6286L15.4751 11.7848C15.7923 11.8558 16.0835 11.9505 16.3486 12.0689C16.6138 12.1873 16.8434 12.3329 17.0376 12.5057C17.2317 12.6785 17.382 12.8821 17.4885 13.1165C17.5974 13.3509 17.6531 13.6196 17.6555 13.9226C17.6531 14.3677 17.5394 14.7536 17.3145 15.0803C17.092 15.4046 16.77 15.6567 16.3486 15.8366C15.9296 16.0142 15.4242 16.103 14.8323 16.103C14.2452 16.103 13.7338 16.013 13.2982 15.8331C12.865 15.6532 12.5264 15.3868 12.2826 15.0341C12.0411 14.679 11.9144 14.2398 11.9026 13.7166H13.3905C13.4071 13.9605 13.4769 14.1641 13.6001 14.3274C13.7255 14.4884 13.8924 14.6103 14.1008 14.6932C14.3115 14.7737 14.5494 14.8139 14.8145 14.8139C15.075 14.8139 15.301 14.776 15.4928 14.7003C15.6869 14.6245 15.8373 14.5192 15.9438 14.3842C16.0503 14.2493 16.1036 14.0942 16.1036 13.919C16.1036 13.7557 16.0551 13.6184 15.958 13.5071C15.8633 13.3958 15.7236 13.3011 15.539 13.223C15.3567 13.1449 15.133 13.0739 14.8678 13.0099L14.0759 12.8111C13.4627 12.6619 12.9786 12.4287 12.6235 12.1115C12.2684 11.7943 12.092 11.367 12.0944 10.8295C12.092 10.3892 12.2092 10.0045 12.4459 9.67543C12.685 9.34635 13.0129 9.08949 13.4296 8.90483C13.8463 8.72017 14.3198 8.62784 14.8501 8.62784C15.3898 8.62784 15.8609 8.72017 16.2634 8.90483C16.6682 9.08949 16.9831 9.34635 17.208 9.67543C17.4329 10.0045 17.5489 10.3857 17.556 10.8189H16.0823Z" fill="white"/>
</svg>
