<svg width="24" height="24" viewBox="0 0 24 24" fill="none" xmlns="http://www.w3.org/2000/svg">
<rect width="24" height="20" transform="translate(0 2)" fill="white"/>
<path d="M13.301 10.8189C13.2726 10.5324 13.1507 10.3099 12.9353 10.1513C12.7198 9.99266 12.4275 9.91335 12.0581 9.91335C11.8072 9.91335 11.5953 9.94886 11.4225 10.0199C11.2497 10.0885 11.1171 10.1844 11.0248 10.3075C10.9348 10.4306 10.8898 10.5703 10.8898 10.7266C10.8851 10.8568 10.9123 10.9704 10.9715 11.0675C11.0331 11.1645 11.1171 11.2486 11.2236 11.3196C11.3302 11.3883 11.4533 11.4486 11.593 11.5007C11.7326 11.5504 11.8818 11.593 12.0404 11.6286L12.6938 11.7848C13.011 11.8558 13.3022 11.9505 13.5674 12.0689C13.8325 12.1873 14.0622 12.3329 14.2563 12.5057C14.4504 12.6785 14.6008 12.8821 14.7073 13.1165C14.8162 13.3509 14.8718 13.6196 14.8742 13.9226C14.8718 14.3677 14.7582 14.7536 14.5333 15.0803C14.3108 15.4046 13.9888 15.6567 13.5674 15.8366C13.1483 16.0142 12.6429 16.103 12.051 16.103C11.4639 16.103 10.9526 16.013 10.517 15.8331C10.0837 15.6532 9.74518 15.3868 9.50133 15.0341C9.25985 14.679 9.1332 14.2398 9.12136 13.7166H10.6093C10.6259 13.9605 10.6957 14.1641 10.8188 14.3274C10.9443 14.4884 11.1112 14.6103 11.3195 14.6932C11.5302 14.7737 11.7681 14.8139 12.0333 14.8139C12.2937 14.8139 12.5198 14.776 12.7116 14.7003C12.9057 14.6245 13.056 14.5192 13.1626 14.3842C13.2691 14.2493 13.3224 14.0942 13.3224 13.919C13.3224 13.7557 13.2738 13.6184 13.1768 13.5071C13.0821 13.3958 12.9424 13.3011 12.7577 13.223C12.5754 13.1449 12.3517 13.0739 12.0866 13.0099L11.2947 12.8111C10.6815 12.6619 10.1974 12.4287 9.84224 12.1115C9.48713 11.7943 9.31075 11.367 9.31312 10.8295C9.31075 10.3892 9.42794 10.0045 9.66468 9.67543C9.90379 9.34635 10.2317 9.08949 10.6483 8.90483C11.065 8.72017 11.5385 8.62784 12.0688 8.62784C12.6086 8.62784 13.0797 8.72017 13.4822 8.90483C13.887 9.08949 14.2019 9.34635 14.4268 9.67543C14.6517 10.0045 14.7677 10.3857 14.7748 10.8189H13.301Z" fill="black"/>
</svg>
