<svg width="24" height="24" viewBox="0 0 24 24" fill="none" xmlns="http://www.w3.org/2000/svg">
<rect width="24" height="20" transform="translate(0 2)" fill="#E6E6E6"/>
<path d="M10.4641 10.8189C10.4357 10.5324 10.3138 10.3099 10.0984 10.1513C9.88293 9.99266 9.59055 9.91335 9.22124 9.91335C8.97029 9.91335 8.7584 9.94886 8.58558 10.0199C8.41276 10.0885 8.28018 10.1844 8.18786 10.3075C8.09789 10.4306 8.05291 10.5703 8.05291 10.7266C8.04818 10.8568 8.0754 10.9704 8.13459 11.0675C8.19614 11.1645 8.28018 11.2486 8.38672 11.3196C8.49325 11.3883 8.61636 11.4486 8.75604 11.5007C8.89571 11.5504 9.04486 11.593 9.20348 11.6286L9.85689 11.7848C10.1741 11.8558 10.4653 11.9505 10.7305 12.0689C10.9956 12.1873 11.2253 12.3329 11.4194 12.5057C11.6135 12.6785 11.7638 12.8821 11.8704 13.1165C11.9793 13.3509 12.0349 13.6196 12.0373 13.9226C12.0349 14.3677 11.9213 14.7536 11.6964 15.0803C11.4738 15.4046 11.1519 15.6567 10.7305 15.8366C10.3114 16.0142 9.80599 16.103 9.21413 16.103C8.62701 16.103 8.11565 16.013 7.68004 15.8331C7.2468 15.6532 6.90826 15.3868 6.66442 15.0341C6.42294 14.679 6.29628 14.2398 6.28445 13.7166H7.77237C7.78894 13.9605 7.85878 14.1641 7.98189 14.3274C8.10736 14.4884 8.27427 14.6103 8.4826 14.6932C8.6933 14.7737 8.93123 14.8139 9.19638 14.8139C9.45679 14.8139 9.68288 14.776 9.87464 14.7003C10.0688 14.6245 10.2191 14.5192 10.3256 14.3842C10.4322 14.2493 10.4854 14.0942 10.4854 13.919C10.4854 13.7557 10.4369 13.6184 10.3398 13.5071C10.2451 13.3958 10.1055 13.3011 9.92081 13.223C9.73852 13.1449 9.5148 13.0739 9.24964 13.0099L8.45774 12.8111C7.84458 12.6619 7.36044 12.4287 7.00533 12.1115C6.65021 11.7943 6.47384 11.367 6.47621 10.8295C6.47384 10.3892 6.59103 10.0045 6.82777 9.67543C7.06688 9.34635 7.39477 9.08949 7.81143 8.90483C8.2281 8.72017 8.70159 8.62784 9.23189 8.62784C9.77166 8.62784 10.2428 8.72017 10.6452 8.90483C11.0501 9.08949 11.3649 9.34635 11.5898 9.67543C11.8147 10.0045 11.9308 10.3857 11.9379 10.8189H10.4641ZM13.0716 16V8.72727H14.6092V14.7322H17.7271V16H13.0716Z" fill="black"/>
</svg>
