<svg width="24" height="24" viewBox="0 0 24 24" fill="none" xmlns="http://www.w3.org/2000/svg">
<path d="M1.54285 8.40685V16.8137L1.61485 16.9646C1.67313 17.0846 1.72456 17.1326 1.84799 17.1874C1.98513 17.2491 2.04685 17.2526 2.41713 17.2354C3.02056 17.2046 3.34285 17.0983 3.4457 16.9029C3.49028 16.8137 3.49713 15.9874 3.50742 9.64456C3.51428 2.89028 3.5177 2.47542 3.57599 2.30742C3.64113 2.10856 3.8057 1.87885 3.95313 1.76914L4.04913 1.69714L9.6617 1.67999C14.0948 1.66628 15.2914 1.65256 15.3497 1.61828C15.4594 1.55656 15.5863 1.37485 15.6308 1.21714C15.6514 1.14171 15.6686 0.836564 15.6686 0.538278V-7.55806e-06H8.6057H1.54285V8.40685Z" fill="black"/>
<path d="M8.51999 3.29143C5.82856 3.30857 5.59541 3.312 5.51313 3.36686C5.36913 3.46286 5.2457 3.648 5.1737 3.87428C5.11199 4.07657 5.10856 4.33371 5.10513 11.9417C5.1017 17.6194 5.11199 19.8411 5.13941 19.944C5.20113 20.1737 5.37941 20.4034 5.57141 20.5029C5.81141 20.6229 6.22284 20.6263 6.43541 20.5029C6.59656 20.4137 6.73027 20.2423 6.81599 20.016C6.87084 19.8823 6.87427 19.2926 6.8777 12.9429C6.88113 7.49486 6.89141 5.97257 6.9257 5.81143C6.9977 5.46857 7.2137 5.32457 7.76913 5.24571C7.91999 5.22514 9.95313 5.21486 13.2068 5.21486C19.0011 5.21828 18.6274 5.23543 18.8743 4.98514C19.0148 4.84457 19.0423 4.71771 19.0183 4.34057C18.984 3.80914 18.7508 3.42171 18.408 3.33257C18.2297 3.28457 13.1657 3.264 8.51999 3.29143Z" fill="black"/>
<path d="M9.08916 6.86057C8.84573 6.90171 8.62288 7.00457 8.55773 7.104C8.50973 7.176 8.50288 8.02286 8.49945 15.3429C8.49945 19.8309 8.49602 23.616 8.49945 23.7497L8.50288 24H15.48H22.4572V15.6069C22.4572 7.68686 22.4537 7.21029 22.3954 7.09714C22.3646 7.032 22.2857 6.94286 22.2206 6.90171L22.104 6.82286L15.6892 6.82629C12.1063 6.82971 9.19202 6.84343 9.08916 6.86057Z" fill="black"/>
<path d="M12.5153 12.995V11.7273H18.4883V12.995H16.2617V19H14.7418V12.995H12.5153Z" fill="white"/>
</svg>
