<svg width="24" height="24" viewBox="0 0 24 24" fill="none" xmlns="http://www.w3.org/2000/svg">
<g clip-path="url(#clip0_27_321)">
<path d="M8.35765 0.888448C8.19448 0.926936 7.81661 1.10579 7.6878 1.20541C7.24767 1.54954 7.0158 1.97064 6.90845 2.61135L6.88054 2.77662H5.83068H4.78296V4.1803V5.58398H8.76557H12.7482V4.1803V2.77662H11.6962H10.6463L10.6334 2.69059C10.5368 2.07026 10.2727 1.54048 9.92063 1.26201C9.73814 1.11711 9.48051 0.981272 9.27011 0.920144C9.05112 0.854488 8.57234 0.83864 8.35765 0.888448ZM9.03394 2.01818C9.16705 2.06573 9.33237 2.20157 9.41395 2.33288C9.48265 2.43929 9.51056 2.51853 9.54062 2.69059L9.5535 2.77662H8.76772H7.98193V2.72229C7.98193 2.69286 8.00125 2.6023 8.02487 2.52079C8.14939 2.09969 8.61743 1.86423 9.03394 2.01818Z" fill="black"/>
<path d="M1.76865 3.29961C1.1718 3.36527 0.708055 3.73883 0.398892 4.40444L0.267928 4.68518L0.25934 12.419C0.248605 20.3068 0.257193 21.4614 0.325896 21.7218C0.401039 22.007 0.572796 22.3082 0.791786 22.5368C0.954955 22.7066 1.07518 22.7927 1.34141 22.9353L1.54107 23.0394H8.75915H15.9794L16.1919 22.9262C16.6986 22.6568 17.0013 22.3172 17.1903 21.8101L17.2568 21.6335V13.1571V4.67839L17.1366 4.42256C16.9498 4.03315 16.836 3.8724 16.6084 3.6777C16.3358 3.44677 16.076 3.3381 15.6917 3.29735C15.5693 3.28603 15.0218 3.27471 14.4744 3.27471H13.4782V3.81807V4.35917L13.549 4.37049C13.5855 4.37728 14.0986 4.38633 14.6848 4.39086L15.7518 4.39992L15.9171 4.52896C16.0202 4.61273 16.091 4.68744 16.1082 4.73273C16.222 5.01799 16.2327 5.88057 16.2155 14.1645L16.2005 21.4659L16.1168 21.5859C16.0696 21.6493 15.9601 21.7603 15.8742 21.8282L15.7175 21.9527H8.76345H1.80945L1.65916 21.8327C1.57757 21.7693 1.47023 21.6629 1.42299 21.5995L1.33282 21.4841L1.31994 18.4073C1.29847 13.8521 1.30276 6.36054 1.32638 5.70398C1.36073 4.76216 1.37576 4.70103 1.62266 4.51991L1.78583 4.39992L2.85072 4.39086C3.43469 4.38633 3.94567 4.37728 3.98432 4.37049L4.05302 4.35917V3.81807V3.27471L2.99671 3.27697C2.41489 3.27924 1.86097 3.28829 1.76865 3.29961Z" fill="black"/>
<path d="M2.35693 8.97998V11.1308H4.42016H6.48554L6.4748 9.96482C6.46836 9.32185 6.45763 8.79207 6.45119 8.78301C6.43401 8.76717 6.3374 8.85093 6.02824 9.14299L5.8028 9.35581L5.79636 9.90369L5.79207 10.4516H4.3944H2.99458L3.00532 9.00262C3.00961 8.20569 3.0182 7.5514 3.02464 7.54687C3.02893 7.54008 3.65155 7.53329 4.40728 7.52876L5.78133 7.5197L5.79422 7.65101C5.8028 7.72346 5.81354 7.78685 5.81998 7.79365C5.8393 7.81629 6.40825 7.21633 6.44689 7.13482C6.46836 7.08501 6.4791 7.01483 6.4748 6.94691L6.46836 6.8405L4.41372 6.83371L2.35693 6.82918V8.97998Z" fill="black"/>
<path d="M6.73673 7.10539C6.04112 7.76648 4.71215 9.00262 4.69712 9.00262C4.68639 9.00262 4.52107 8.82151 4.32999 8.59963C4.13891 8.38003 3.97574 8.1989 3.96715 8.1989C3.92636 8.1989 3.32521 8.73774 3.33809 8.76264C3.36171 8.80113 4.2527 9.82899 4.43734 10.026C4.52536 10.1233 4.60909 10.2025 4.61983 10.2025C4.69927 10.2025 7.50964 7.58989 7.50964 7.51518C7.50964 7.49706 7.38511 7.3499 7.23483 7.1869L6.96002 6.89258L6.73673 7.10539Z" fill="black"/>
<path d="M8.4092 8.39135C8.16659 8.41625 8.04422 8.46606 7.93901 8.58605C7.80805 8.73774 7.76082 8.86453 7.77155 9.03885C7.78229 9.21092 7.84884 9.32865 8.01201 9.45769C8.14942 9.56637 8.24174 9.59353 8.56163 9.61617C8.93306 9.64108 14.045 9.63881 14.3971 9.61391C14.7234 9.59127 14.8522 9.54373 14.9918 9.39883C15.1034 9.2811 15.1528 9.15658 15.1528 8.99131C15.1528 8.8283 15.1034 8.70152 14.9939 8.58832C14.8544 8.43889 14.7771 8.41399 14.425 8.39135C14.0557 8.36645 8.64751 8.36645 8.4092 8.39135Z" fill="black"/>
<path d="M2.35693 13.8974V16.0731L3.45618 16.0595C4.05947 16.0505 4.98267 16.0437 5.50652 16.0437H6.45763V13.8974V11.7489L5.44426 11.7353C4.88605 11.7262 3.96286 11.7194 3.39392 11.7194H2.35693V13.8974ZM5.79207 13.8929V15.3418H4.39655H3.00102V13.8929V12.4439H4.39655H5.79207V13.8929Z" fill="black"/>
<path d="M8.61532 13.2816C8.2031 13.2997 8.1022 13.3291 7.95406 13.4808C7.82524 13.6099 7.78015 13.7208 7.78015 13.8929C7.78015 14.0695 7.82524 14.1759 7.96479 14.3162C8.13655 14.4928 8.08073 14.486 9.4419 14.5064C10.1096 14.5155 11.5631 14.5245 12.6731 14.5245L14.6934 14.5268L14.8222 14.4272C14.893 14.3728 14.9853 14.2868 15.0283 14.2347C15.2151 14.0038 15.1893 13.6869 14.9617 13.4537C14.8436 13.3314 14.7256 13.3088 14.1115 13.2816C13.5404 13.259 9.1907 13.2567 8.61532 13.2816Z" fill="black"/>
<path d="M2.35693 18.7831V20.9339H4.42016H6.48554L6.4748 19.768C6.46836 19.125 6.45763 18.5952 6.45119 18.5861C6.43401 18.5703 6.31807 18.6699 6.0175 18.9552L5.79207 19.1703V19.7114V20.2547H4.73362C4.14965 20.2547 3.52703 20.2479 3.34883 20.2389L3.02249 20.2253V18.7786V17.3342L4.03156 17.3296C4.58763 17.3251 5.2081 17.3228 5.41206 17.3228H5.78133L5.79422 17.4541C5.8028 17.5266 5.81139 17.59 5.81783 17.5945C5.83716 17.6149 6.41039 17.0149 6.44475 16.938C6.46836 16.8881 6.4791 16.818 6.4748 16.75L6.46836 16.6436L4.41372 16.6368L2.35693 16.6323V18.7831Z" fill="black"/>
<path d="M6.84194 16.8066C6.57142 17.0738 4.71215 18.8058 4.69712 18.8058C4.67995 18.8058 4.17756 18.2352 4.0423 18.0632C4.0101 18.0224 3.9693 17.993 3.95428 17.9998C3.93925 18.0066 3.79111 18.1311 3.62364 18.276L3.32092 18.5409L3.37245 18.5997C3.40036 18.6314 3.60003 18.8669 3.81687 19.1227C4.28491 19.6729 4.58763 20.0057 4.62198 20.0057C4.70142 20.0057 7.50964 17.393 7.50964 17.3183C7.50964 17.3002 7.38512 17.153 7.23268 16.99L6.95787 16.6912L6.84194 16.8066Z" fill="black"/>
<path d="M18.1338 15.8661C18.0116 15.8971 17.9556 15.9483 17.9047 16.0654C17.8741 16.1403 17.8665 16.2885 17.8665 16.8754V17.5941L14.4987 17.5979L11.1308 17.6034L11.0214 17.6546C10.9526 17.6875 10.8941 17.735 10.8635 17.7826C10.8177 17.8557 10.8152 17.9216 10.8152 19.1028C10.8152 19.9147 10.8254 20.3701 10.8432 20.4158C10.8763 20.5017 11.0036 20.6096 11.113 20.6407C11.1818 20.6626 11.7978 20.6663 14.5929 20.6663H17.9887L17.9989 21.4489C18.009 22.3011 18.0116 22.3157 18.1567 22.3998C18.2992 22.4803 18.4851 22.4675 18.6913 22.3614C18.8414 22.2846 23.6144 19.4411 23.6883 19.3844C23.7824 19.3095 23.8486 19.1851 23.8486 19.0699C23.8486 18.8797 23.7545 18.792 23.1741 18.4555C22.7159 18.1884 21.303 17.404 20.043 16.7164C19.4269 16.3818 18.8491 16.0636 18.7575 16.0124C18.48 15.8533 18.3222 15.8149 18.1338 15.8661Z" fill="black"/>
</g>
<defs>
<clipPath id="clip0_27_321">
<rect width="24" height="24" fill="white"/>
</clipPath>
</defs>
</svg>
