<svg width="24" height="24" viewBox="0 0 24 24" fill="none" xmlns="http://www.w3.org/2000/svg">
<rect width="24" height="20" transform="translate(0 2)" fill="white"/>
<path d="M9.67116 8.72727H11.2088V13.4503C11.2088 13.9806 11.0821 14.4446 10.8288 14.8423C10.5779 15.2401 10.2263 15.5502 9.77415 15.7727C9.32197 15.9929 8.79522 16.103 8.19389 16.103C7.5902 16.103 7.06226 15.9929 6.61009 15.7727C6.15791 15.5502 5.80634 15.2401 5.5554 14.8423C5.30445 14.4446 5.17898 13.9806 5.17898 13.4503V8.72727H6.71662V13.3189C6.71662 13.5959 6.77699 13.8421 6.89773 14.0575C7.02083 14.273 7.19366 14.4422 7.41619 14.5653C7.63873 14.6884 7.89796 14.75 8.19389 14.75C8.49219 14.75 8.75142 14.6884 8.97159 14.5653C9.19413 14.4422 9.36577 14.273 9.48651 14.0575C9.60961 13.8421 9.67116 13.5959 9.67116 13.3189V8.72727ZM12.4739 16V8.72727H15.3858C15.9209 8.72727 16.3671 8.80658 16.7246 8.9652C17.0821 9.12382 17.3508 9.34399 17.5307 9.62571C17.7106 9.90507 17.8006 10.227 17.8006 10.5916C17.8006 10.8757 17.7438 11.1255 17.6301 11.3409C17.5165 11.554 17.3603 11.7292 17.1614 11.8665C16.9649 12.0014 16.74 12.0973 16.4867 12.1541V12.2251C16.7637 12.237 17.0229 12.3151 17.2644 12.4595C17.5082 12.6039 17.7059 12.8063 17.8574 13.0668C18.0089 13.3248 18.0847 13.6326 18.0847 13.9901C18.0847 14.3759 17.9888 14.7204 17.7971 15.0234C17.6077 15.3241 17.3271 15.562 16.9554 15.7372C16.5837 15.9124 16.1257 16 15.5811 16H12.4739ZM14.0115 14.7429H15.2651C15.6936 14.7429 16.0061 14.6612 16.2026 14.4979C16.3991 14.3321 16.4973 14.112 16.4973 13.8374C16.4973 13.6361 16.4488 13.4586 16.3517 13.3047C16.2547 13.1508 16.1162 13.0301 15.9363 12.9425C15.7587 12.8549 15.5468 12.8111 15.3006 12.8111H14.0115V14.7429ZM14.0115 11.7706H15.1515C15.3622 11.7706 15.5492 11.7339 15.7125 11.6605C15.8783 11.5848 16.0085 11.4782 16.1032 11.3409C16.2002 11.2036 16.2488 11.0391 16.2488 10.8473C16.2488 10.5845 16.1552 10.3726 15.9682 10.2116C15.7836 10.0507 15.5208 9.97017 15.1799 9.97017H14.0115V11.7706Z" fill="black"/>
</svg>
