<svg width="24" height="24" viewBox="0 0 24 24" fill="none" xmlns="http://www.w3.org/2000/svg">
<rect width="24" height="20" transform="translate(0 2)" fill="#1B75BB"/>
<path d="M9.83913 8.72727H11.3768V13.4503C11.3768 13.9806 11.2501 14.4446 10.9968 14.8423C10.7459 15.2401 10.3943 15.5502 9.94212 15.7727C9.48994 15.9929 8.96319 16.103 8.36186 16.103C7.75817 16.103 7.23023 15.9929 6.77805 15.7727C6.32588 15.5502 5.97431 15.2401 5.72337 14.8423C5.47242 14.4446 5.34695 13.9806 5.34695 13.4503V8.72727H6.88459V13.3189C6.88459 13.5959 6.94496 13.8421 7.0657 14.0575C7.1888 14.273 7.36162 14.4422 7.58416 14.5653C7.8067 14.6884 8.06593 14.75 8.36186 14.75C8.66016 14.75 8.91939 14.6884 9.13956 14.5653C9.3621 14.4422 9.53374 14.273 9.65447 14.0575C9.77758 13.8421 9.83913 13.5959 9.83913 13.3189V8.72727ZM15.22 16H12.6419V8.72727H15.2413C15.9728 8.72727 16.6026 8.87287 17.1305 9.16406C17.6584 9.45289 18.0645 9.86837 18.3485 10.4105C18.635 10.9527 18.7782 11.6013 18.7782 12.3565C18.7782 13.1141 18.635 13.7652 18.3485 14.3097C18.0645 14.8542 17.6561 15.272 17.1234 15.5632C16.5931 15.8544 15.9586 16 15.22 16ZM14.1795 14.6825H15.1561C15.6106 14.6825 15.993 14.602 16.3031 14.4411C16.6156 14.2777 16.85 14.0256 17.0062 13.6847C17.1648 13.3414 17.2441 12.8987 17.2441 12.3565C17.2441 11.8191 17.1648 11.38 17.0062 11.0391C16.85 10.6982 16.6168 10.4472 16.3066 10.2862C15.9965 10.1252 15.6142 10.0447 15.1596 10.0447H14.1795V14.6825Z" fill="white"/>
</svg>
