<svg width="50" height="50" viewBox="0 0 50 50" fill="none" xmlns="http://www.w3.org/2000/svg">
<path d="M6.20898 14.9502V43.6504H34.9082V45.75H7.20898C5.50625 45.75 4.10864 44.3527 4.1084 42.6504V14.9502H6.20898ZM11.5859 9.75586V38.4561H40.2861V40.5557H12.5859C10.883 40.5557 9.48539 39.1584 9.48535 37.4561V9.75586H11.5859ZM42.791 4.25C44.4938 4.25 45.8914 5.64726 45.8916 7.34961V31.9502L45.8877 32.1084C45.8043 33.7383 44.4409 35.0498 42.791 35.0498H18.1914C16.4888 35.0498 15.0919 33.6529 15.0918 31.9502V7.34961L15.0957 7.19141C15.1792 5.56126 16.542 4.25 18.1914 4.25H42.791ZM17.1914 6.34961V32.9502H43.791V6.34961H17.1914Z" fill="#0067B3"/>
<path d="M38.0585 17.3905L39.1185 16.3305C39.8985 15.5505 39.8985 14.2805 39.1185 13.5005L37.7085 12.0905C36.9285 11.3105 35.6585 11.3105 34.8785 12.0905L33.8185 13.1505L38.0585 17.3905ZM33.8185 18.8105L26.6185 26.0005H25.2085V24.5905L32.3985 17.4005L33.8185 18.8105ZM32.3985 14.5605L23.2085 23.7605V28.0005H27.4485L36.6385 18.8105L32.3985 14.5605ZM38.2085 24.5005C38.2085 26.6905 35.6685 28.0005 33.2085 28.0005C32.6585 28.0005 32.2085 27.5505 32.2085 27.0005C32.2085 26.4505 32.6585 26.0005 33.2085 26.0005C34.7485 26.0005 36.2085 25.2705 36.2085 24.5005C36.2085 24.0305 35.7285 23.6305 34.9785 23.3005L36.4585 21.8205C37.5285 22.4505 38.2085 23.2905 38.2085 24.5005ZM23.7885 20.3505C22.8185 19.7905 22.2085 19.0605 22.2085 18.0005C22.2085 16.2005 24.0985 15.3705 25.7685 14.6405C26.7985 14.1805 28.2085 13.5605 28.2085 13.0005C28.2085 12.5905 27.4285 12.0005 26.2085 12.0005C24.9485 12.0005 24.4085 12.6105 24.3785 12.6405C24.0285 13.0505 23.3985 13.1005 22.9785 12.7605C22.5685 12.4205 22.4885 11.8105 22.8285 11.3805C22.9385 11.2405 23.9685 10.0005 26.2085 10.0005C28.4485 10.0005 30.2085 11.3205 30.2085 13.0005C30.2085 14.8705 28.2785 15.7205 26.5685 16.4705C25.6285 16.8805 24.2085 17.5005 24.2085 18.0005C24.2085 18.3105 24.6385 18.6005 25.2785 18.8605L23.7885 20.3505Z" fill="#0067B3"/>
</svg>
